<svg width="16" height="17" viewBox="0 0 16 17" fill="none" xmlns="http://www.w3.org/2000/svg">
<path d="M14.6668 7.83331H2.94285L6.47152 4.30464C6.53519 4.24314 6.58598 4.16958 6.62092 4.08824C6.65586 4.00691 6.67425 3.91943 6.67502 3.83091C6.67579 3.74239 6.65892 3.6546 6.6254 3.57267C6.59188 3.49074 6.54237 3.4163 6.47978 3.35371C6.41718 3.29111 6.34275 3.24161 6.26082 3.20809C6.17889 3.17457 6.0911 3.1577 6.00258 3.15847C5.91406 3.15924 5.82658 3.17763 5.74525 3.21257C5.66391 3.24751 5.59035 3.2983 5.52885 3.36197L0.862183 8.02864C0.737202 8.15366 0.666992 8.3232 0.666992 8.49997C0.666992 8.67675 0.737202 8.84629 0.862183 8.97131L5.52885 13.638C5.65458 13.7594 5.82299 13.8266 5.99778 13.8251C6.17258 13.8236 6.33979 13.7535 6.4634 13.6299C6.587 13.5062 6.65711 13.339 6.65863 13.1642C6.66015 12.9894 6.59295 12.821 6.47152 12.6953L2.94285 9.16664H14.6668C14.8437 9.16664 15.0132 9.0964 15.1383 8.97138C15.2633 8.84635 15.3335 8.67678 15.3335 8.49997C15.3335 8.32316 15.2633 8.15359 15.1383 8.02857C15.0132 7.90354 14.8437 7.83331 14.6668 7.83331Z" fill="#5E5E5E"/>
</svg>
