<svg width="65" height="65" viewBox="0 0 65 65" fill="none" xmlns="http://www.w3.org/2000/svg">
<path d="M60.145 22.8821V16.5073C60.145 15.366 59.6916 14.2715 58.8846 13.4645C58.0776 12.6575 56.9831 12.2041 55.8418 12.2041H51.9888V10.6129C51.9863 9.74575 51.6407 8.91487 51.0276 8.30172C50.4144 7.68857 49.5835 7.34298 48.7164 7.34045H47.6856C46.8184 7.34298 45.9876 7.68857 45.3744 8.30172C44.7612 8.91487 44.4157 9.74575 44.4131 10.6129C44.4205 11.4873 44.4131 15.9469 44.4131 15.9469C44.415 16.675 44.6589 17.3818 45.1064 17.9562C45.5538 18.5306 46.1796 18.94 46.8851 19.1199C47.1088 19.1692 47.3093 19.2922 47.4545 19.4693C47.5997 19.6464 47.6811 19.8672 47.6856 20.0961C47.6849 20.249 47.6495 20.3997 47.582 20.5368C47.5146 20.674 47.4168 20.794 47.2962 20.8879C47.1755 20.9817 47.0351 21.0469 46.8856 21.0786C46.736 21.1102 46.5812 21.1075 46.4329 21.0705C45.2867 20.7882 44.2681 20.1303 43.5393 19.2017C42.8105 18.2731 42.4135 17.1273 42.4116 15.9469C42.4134 15.0231 42.4104 13.1331 42.4116 12.2041C41.0245 12.2036 37.3531 12.2044 36.0268 12.2041V10.6129C36.0243 9.74575 35.6787 8.91487 35.0656 8.30172C34.4524 7.68857 33.6215 7.34298 32.7544 7.34045H31.7236C30.8565 7.34299 30.0256 7.68859 29.4124 8.30175C28.7993 8.91491 28.4537 9.7458 28.4511 10.6129V15.9469C28.4534 16.6749 28.6975 17.3815 29.1449 17.9558C29.5923 18.53 30.2178 18.9394 30.9231 19.1197C31.0524 19.1483 31.1747 19.2021 31.283 19.2783C31.3914 19.3544 31.4835 19.4512 31.5542 19.5632C31.6249 19.6752 31.6726 19.8001 31.6947 19.9306C31.7169 20.0611 31.7129 20.1948 31.683 20.3238C31.6531 20.4528 31.598 20.5746 31.5208 20.6821C31.4435 20.7896 31.3457 20.8808 31.2331 20.9503C31.1204 21.0199 30.995 21.0663 30.8642 21.0871C30.7335 21.1079 30.5999 21.1025 30.4712 21.0713C29.3241 20.7905 28.3043 20.1329 27.5752 19.2039C26.846 18.2748 26.4497 17.1279 26.4496 15.9469C26.4489 15.0232 26.4501 13.1331 26.4496 12.2041C25.1161 12.2048 21.3526 12.2036 20.0648 12.2041V10.6129C20.0623 9.74575 19.7167 8.91487 19.1035 8.30172C18.4904 7.68857 17.6595 7.34298 16.7924 7.34045H15.7616C14.8945 7.34298 14.0636 7.68857 13.4504 8.30172C12.8373 8.91487 12.4917 9.74575 12.4892 10.6129C12.4902 12.188 12.4884 14.3709 12.4892 15.947C12.4915 16.675 12.7356 17.3817 13.1831 17.956C13.6306 18.5303 14.2562 18.9397 14.9617 19.1199C15.091 19.1483 15.2134 19.2022 15.3217 19.2783C15.43 19.3544 15.5222 19.4512 15.5929 19.5632C15.6635 19.6752 15.7113 19.8001 15.7333 19.9306C15.7554 20.0612 15.7513 20.1948 15.7213 20.3238C15.6914 20.4527 15.6361 20.5745 15.5588 20.6819C15.4814 20.7894 15.3836 20.8805 15.2708 20.9498C15.158 21.0192 15.0326 21.0655 14.9018 21.0861C14.771 21.1066 14.6374 21.101 14.5088 21.0696C13.3636 20.7857 12.3461 20.1276 11.6176 19.1996C10.8891 18.2715 10.4914 17.1268 10.4877 15.947C10.4845 15.0232 10.4899 13.1332 10.4877 12.2041H8.63623C7.49495 12.2041 6.40041 12.6575 5.5934 13.4645C4.78639 14.2715 4.33301 15.366 4.33301 16.5073V22.8821H60.145ZM46.4146 12.2041V10.6129C46.4151 10.2759 46.5492 9.95295 46.7875 9.71471C47.0257 9.47648 47.3487 9.34243 47.6856 9.34196H48.7164C49.0533 9.34243 49.3763 9.47648 49.6146 9.71471C49.8528 9.95295 49.9869 10.2759 49.9874 10.6129V12.2041L46.4146 12.2041ZM30.4526 12.2041V10.6129C30.4531 10.2759 30.5872 9.95295 30.8255 9.71471C31.0637 9.47647 31.3867 9.34243 31.7236 9.34196H32.7544C33.0913 9.34245 33.4143 9.4765 33.6525 9.71474C33.8908 9.95298 34.0248 10.276 34.0253 10.6129V12.2041L30.4526 12.2041ZM14.4906 12.2041V10.6129C14.4911 10.276 14.6252 9.95297 14.8634 9.71474C15.1017 9.47651 15.4247 9.34246 15.7616 9.34199H16.7924C17.1293 9.34247 17.4523 9.47652 17.6905 9.71476C17.9288 9.953 18.0628 10.276 18.0633 10.6129V12.2041L14.4906 12.2041ZM59.8948 44.6685C59.2697 42.5874 57.9909 40.7628 56.248 39.4651C54.505 38.1673 52.3905 37.4654 50.2175 37.4631C36.8235 38.0143 36.8167 57.0933 50.2176 57.6583C51.7873 57.6477 53.3332 57.2731 54.7338 56.5641C56.1343 55.855 57.3513 54.8308 58.2892 53.572C59.227 52.3131 59.8601 50.8539 60.1387 49.309C60.4173 47.7641 60.3338 46.1757 59.8948 44.6685ZM55.5215 45.4591L50.3576 51.0233C50.1771 51.216 49.9282 51.3303 49.6644 51.3415C49.4005 51.3527 49.1428 51.26 48.9466 51.0833L45.554 47.961C45.3576 47.7805 45.2409 47.5294 45.2297 47.2629C45.2184 46.9964 45.3135 46.7364 45.494 46.5399C45.6744 46.3435 45.9255 46.2269 46.192 46.2156C46.4585 46.2043 46.7186 46.2994 46.915 46.4799L49.567 48.9318L54.0504 44.0981C54.232 43.9077 54.4812 43.7963 54.7442 43.7881C55.0073 43.7799 55.263 43.8754 55.4562 44.0541C55.6493 44.2328 55.7645 44.4803 55.7767 44.7432C55.7889 45.0061 55.6973 45.2632 55.5215 45.4591ZM38.1184 47.5606C38.1542 35.7352 53.4551 31.0346 60.145 40.6557V24.8836H4.33301V50.7931C4.33465 51.9339 4.78854 53.0275 5.5952 53.8341C6.40185 54.6408 7.49544 55.0947 8.63623 55.0963H40.7504C39.0447 52.9552 38.1167 50.2982 38.1184 47.5606ZM19.0641 34.641H11.3483C11.0855 34.6371 10.8347 34.5299 10.6502 34.3427C10.4657 34.1554 10.3623 33.9031 10.3623 33.6402C10.3623 33.3774 10.4657 33.125 10.6502 32.9378C10.8347 32.7505 11.0855 32.6434 11.3483 32.6395H19.064C19.3269 32.6434 19.5776 32.7505 19.7621 32.9378C19.9466 33.125 20.0501 33.3774 20.0501 33.6402C20.0501 33.9031 19.9466 34.1554 19.7622 34.3427C19.5777 34.5299 19.3269 34.6371 19.0641 34.641ZM19.0641 30.548H11.3483C11.0855 30.544 10.8348 30.4368 10.6504 30.2496C10.466 30.0623 10.3626 29.8101 10.3626 29.5472C10.3626 29.2844 10.466 29.0321 10.6504 28.8449C10.8348 28.6577 11.0855 28.5505 11.3483 28.5465H19.064C19.3264 28.5511 19.5764 28.6586 19.7603 28.8457C19.9442 29.0329 20.0473 29.2848 20.0473 29.5472C20.0473 29.8096 19.9443 30.0615 19.7604 30.2487C19.5765 30.4358 19.3264 30.5434 19.0641 30.548Z" fill="url(#paint0_linear_2756_3693)"/>
<defs>
<linearGradient id="paint0_linear_2756_3693" x1="4.33301" y1="32.5" x2="60.333" y2="32.5" gradientUnits="userSpaceOnUse">
<stop stop-color="#EB00D4"/>
<stop offset="1" stop-color="#8A027D"/>
</linearGradient>
</defs>
</svg>
