<svg width="45" height="78" viewBox="0 0 45 78" fill="none" xmlns="http://www.w3.org/2000/svg">
<path d="M38.5475 14.1524C37.8042 14.1524 37.0431 13.9308 36.286 13.4937C33.6657 11.9808 31.6895 8.26084 31.6895 4.84072C31.6895 1.99052 33.2453 0 35.4732 0C36.2167 0 36.9776 0.22166 37.7348 0.658734C40.3551 2.17166 42.3313 5.89159 42.3313 9.31171C42.3311 12.1619 40.7752 14.1524 38.5475 14.1524ZM35.4732 2.89788C34.9517 2.89788 34.5873 3.69677 34.5873 4.84072C34.5873 7.18575 36.0287 9.99893 37.7348 10.984C38.0414 11.161 38.3223 11.2545 38.5475 11.2545C39.069 11.2545 39.4334 10.4557 39.4334 9.31171C39.4334 6.96683 37.9921 4.1535 36.286 3.16829C35.9793 2.99142 35.6984 2.89788 35.4732 2.89788Z" fill="#D7D1EB"/>
<path d="M25.3258 21.9238C24.5825 21.9238 23.8214 21.7023 23.0643 21.2651C20.444 19.7521 18.4678 16.0322 18.4678 12.6121C18.4678 9.76189 20.0238 7.77136 22.2515 7.77136C22.9953 7.77136 23.7561 7.99302 24.5131 8.43025C27.1334 9.94317 29.1096 13.663 29.1096 17.0831C29.1096 19.9333 27.5537 21.9238 25.3258 21.9238ZM22.2517 10.6692C21.7302 10.6692 21.3658 11.4681 21.3658 12.6121C21.3658 14.9571 22.8071 17.7703 24.5132 18.7553C24.8199 18.9324 25.1008 19.0259 25.326 19.0259C25.8476 19.0259 26.212 18.227 26.212 17.0831C26.212 14.738 24.7707 11.9249 23.0644 10.9398C22.7578 10.7628 22.4767 10.6692 22.2517 10.6692Z" fill="#D7D1EB"/>
<path d="M12.1367 29.5897C11.3928 29.5897 10.6321 29.3682 9.87484 28.931C7.25452 27.4181 5.27832 23.6982 5.27832 20.278C5.27832 17.4278 6.83436 15.4373 9.06208 15.4373C9.80598 15.4373 10.5666 15.659 11.3239 16.0961C13.9442 17.609 15.9204 21.3289 15.9204 24.749C15.9204 27.5992 14.3644 29.5897 12.1367 29.5897ZM9.06208 18.3352C8.54061 18.3352 8.17635 19.1342 8.17635 20.2782C8.17635 22.6232 9.61768 25.4364 11.3239 26.4215C11.6306 26.5985 11.9115 26.692 12.1367 26.692C12.6582 26.692 13.0224 25.8931 13.0224 24.7492C13.0224 22.4041 11.5811 19.5908 9.87484 18.6059C9.56817 18.4287 9.28725 18.3352 9.06208 18.3352Z" fill="#D7D1EB"/>
<path d="M37.6415 15.4373L0.518555 36.8704V72.0344C0.518555 73.065 0.866052 73.7856 1.4122 74.0892L1.41144 74.0904L7.87935 77.8134C7.90936 77.8315 7.93891 77.8503 7.97014 77.8657L7.98218 77.8727L7.98309 77.8711L44.1443 19.1844L37.6415 15.4373Z" fill="url(#paint0_linear_2756_3647)"/>
<path d="M41.6167 59.1857L9.5553 77.6963C8.15755 78.5032 7.02441 77.6466 7.02441 75.783V40.619L44.1474 19.186V54.35C44.1475 56.2138 43.0144 58.3788 41.6167 59.1857Z" fill="url(#paint1_linear_2756_3647)"/>
<path d="M7.02439 40.6124L7.02455 40.6123L43.022 7.06451L36.988 3.59306L36.9849 3.5958C36.5218 3.18142 35.8548 3.13572 35.1108 3.56533L3.04944 22.076C1.65169 22.883 0.518555 25.0479 0.518555 26.9117V36.8706L7.02439 40.6124Z" fill="url(#paint2_linear_2756_3647)"/>
<path d="M44.1474 19.1795L7.02441 40.6124V30.6537C7.02441 28.7901 8.15755 26.6251 9.5553 25.8182L41.6165 7.30735C43.0143 6.50039 44.1474 7.35702 44.1474 9.22064V19.1795Z" fill="#7662BD"/>
<path d="M14.9691 58.817L9.69531 61.8619V54.8301L14.9691 51.7852V58.817Z" fill="#D7D1EB"/>
<path d="M23.8052 53.7158L18.5312 56.7607V49.7289L23.8052 46.684V53.7158Z" fill="#D7D1EB"/>
<path d="M32.64 48.6147L27.3662 51.6596V44.6276L32.64 41.5827V48.6147Z" fill="#D7D1EB"/>
<path d="M41.4761 43.5135L36.2021 46.5584V39.5265L41.4761 36.4816V43.5135Z" fill="#D7D1EB"/>
<path d="M14.9691 46.8081L9.69531 49.853V42.8211L14.9691 39.7762V46.8081Z" fill="#D7D1EB"/>
<path d="M23.8052 41.7068L18.5312 44.7517V37.7198L23.8052 34.6749V41.7068Z" fill="#D7D1EB"/>
<path d="M32.64 36.6056L27.3662 39.6505V32.6186L32.64 29.5737V36.6056Z" fill="#D7D1EB"/>
<path d="M41.4761 31.5044L36.2021 34.5493V27.5174L41.4761 24.4725V31.5044Z" fill="#D7D1EB"/>
<path d="M14.9691 70.8261L9.69531 73.871V66.8391L14.9691 63.7943V70.8261Z" fill="#D7D1EB"/>
<path d="M23.8052 65.7249L18.5312 68.7698V61.7379L23.8052 58.693V65.7249Z" fill="#D7D1EB"/>
<path d="M32.64 60.6237L27.3662 63.6686V56.6367L32.64 53.5918V60.6237Z" fill="#D7D1EB"/>
<path d="M41.4761 55.5224L36.2021 58.5673V51.5354L41.4761 48.4905V55.5224Z" fill="#D7D1EB"/>
<path d="M29.9526 49.7117L27.7817 48.0705C27.5142 47.8684 27.5142 47.2901 27.7817 46.779C28.0489 46.2682 28.4829 46.0175 28.7501 46.2197L29.9526 47.1286L33.0813 41.1506C33.3485 40.6398 33.7825 40.3892 34.0497 40.5914C34.3172 40.7935 34.3172 41.3718 34.0497 41.8829L29.9526 49.7117Z" fill="#2F878A"/>
<path d="M38.7876 44.6105L36.6167 42.9693C36.3491 42.7672 36.3491 42.1889 36.6167 41.6778C36.884 41.167 37.3179 40.9164 37.5853 41.1185L38.7876 42.0274L41.9162 36.0494C42.1834 35.5386 42.6175 35.288 42.8848 35.4902C43.1524 35.6923 43.1524 36.2706 42.8848 36.7817L38.7876 44.6105Z" fill="#2F878A"/>
<path d="M11.3239 16.0962C9.93789 15.2961 8.49626 15.2256 7.34119 15.8921C7.07641 16.0449 6.83571 16.2336 6.61816 16.4518L8.66627 18.4999C8.70786 18.4586 8.74945 18.4252 8.79013 18.4016C9.03586 18.2596 9.42312 18.3451 9.87482 18.6059C11.5812 19.5908 13.0224 22.4041 13.0224 24.7492C13.0224 25.9079 12.672 26.5458 12.325 26.6638C11.5686 26.921 11.1624 27.7455 11.4193 28.5017C11.619 29.0896 12.1703 29.4846 12.7911 29.4846C12.9502 29.4846 13.1072 29.4586 13.2576 29.4074C14.9249 28.8407 15.9203 27.0994 15.9203 24.7492C15.9204 21.3291 13.9442 17.6091 11.3239 16.0962Z" fill="#D7D1EB"/>
<path d="M24.5136 8.43027C23.1282 7.63017 21.6865 7.55948 20.5312 8.22598C20.2282 8.40087 19.9567 8.62253 19.7158 8.88228L21.7685 10.935C21.8381 10.8419 21.9105 10.7758 21.9801 10.7357C22.2258 10.5939 22.6131 10.6792 23.0648 10.9398C24.7712 11.9249 26.2124 14.7381 26.2124 17.0831C26.2124 18.2418 25.862 18.8795 25.5146 18.9976C24.7586 19.2548 24.3522 20.0792 24.6093 20.8356C24.809 21.4235 25.3603 21.8185 25.9811 21.8185C26.1395 21.8185 26.2963 21.7927 26.4476 21.7413C28.1147 21.1744 29.1101 19.4331 29.1101 17.0831C29.1099 13.663 27.1339 9.94305 24.5136 8.43027Z" fill="#D7D1EB"/>
<path d="M37.7345 0.658912C36.3489 -0.141197 34.9071 -0.211885 33.752 0.454619C33.5004 0.599955 33.2697 0.776826 33.0605 0.981424L35.1103 3.03121C35.1406 3.00455 35.171 2.98154 35.2008 2.96433C35.4467 2.82265 35.834 2.90781 36.2855 3.16847C37.9916 4.15368 39.4329 6.96686 39.4329 9.31188C39.4329 10.4708 39.0828 11.1085 38.7355 11.2265C37.9791 11.4837 37.5733 12.3083 37.8301 13.0646C38.0298 13.6525 38.5812 14.0475 39.202 14.0475C39.3604 14.0475 39.5172 14.0216 39.6685 13.9703C41.3356 13.4035 42.331 11.6621 42.331 9.31204C42.3308 5.89161 40.3548 2.17169 37.7345 0.658912Z" fill="#D7D1EB"/>
<defs>
<linearGradient id="paint0_linear_2756_3647" x1="22.3314" y1="64.2597" x2="22.3314" y2="34.8409" gradientUnits="userSpaceOnUse">
<stop stop-color="#C5BAEB"/>
<stop offset="1" stop-color="#DFDAEF"/>
</linearGradient>
<linearGradient id="paint1_linear_2756_3647" x1="25.586" y1="76.8182" x2="-1.61348" y2="29.7088" gradientUnits="userSpaceOnUse">
<stop stop-color="#DFDAEF"/>
<stop offset="1" stop-color="#F2EFFA"/>
</linearGradient>
<linearGradient id="paint2_linear_2756_3647" x1="11.551" y1="33.9175" x2="15.3547" y2="27.3296" gradientUnits="userSpaceOnUse">
<stop stop-color="#252336"/>
<stop offset="1" stop-color="#594A8E"/>
</linearGradient>
</defs>
</svg>
