<svg width="16" height="16" viewBox="0 0 16 16" fill="none" xmlns="http://www.w3.org/2000/svg">
<g clip-path="url(#clip0_2097_619)">
<path d="M13.6594 13.659C10.538 16.7798 5.46158 16.7798 2.34012 13.659C-0.779999 10.5382 -0.779999 5.46053 2.34012 2.33972C3.90085 0.779645 5.95047 -3.33786e-05 8.00012 -3.33786e-05C10.0498 -3.33786e-05 12.0987 0.779675 13.6594 2.33972C16.7802 5.46049 16.7802 10.5382 13.6594 13.659ZM11.301 5.64127C11.5618 5.38049 11.5618 4.95895 11.301 4.69817C11.1709 4.56811 11.0002 4.50273 10.8294 4.50273C10.6587 4.50273 10.4879 4.56811 10.3578 4.69817L8.00008 7.05662L5.64298 4.69886C5.51226 4.5688 5.3415 4.50342 5.17142 4.50342C5.00068 4.50342 4.82991 4.5688 4.69985 4.69886C4.43907 4.95963 4.43907 5.38183 4.69985 5.64195L7.05696 7.99971L4.69919 10.3575C4.43842 10.6183 4.43842 11.0405 4.69919 11.3006C4.95932 11.5614 5.38151 11.5614 5.64229 11.3006L8.00005 8.94281L10.3578 11.3006C10.6186 11.5614 11.0401 11.5614 11.3009 11.3006C11.5617 11.0405 11.5617 10.6183 11.3009 10.3575L8.94315 7.99971L11.301 5.64127Z" fill="#E42802"/>
</g>
<defs>
<clipPath id="clip0_2097_619">
<rect width="16" height="16" fill="white" transform="matrix(1 0 0 -1 0 16)"/>
</clipPath>
</defs>
</svg>
