<svg width="14" height="17" viewBox="0 0 14 17" fill="none" xmlns="http://www.w3.org/2000/svg">
<path d="M10.334 16.5H3.66732C1.82932 16.5 0.333984 15.0047 0.333984 13.1667V3.83333C0.333984 1.99533 1.82932 0.5 3.66732 0.5H10.334C12.172 0.5 13.6673 1.99533 13.6673 3.83333V13.1667C13.6673 15.0047 12.172 16.5 10.334 16.5ZM3.66732 1.83333C2.56465 1.83333 1.66732 2.73067 1.66732 3.83333V13.1667C1.66732 14.2693 2.56465 15.1667 3.66732 15.1667H10.334C11.4367 15.1667 12.334 14.2693 12.334 13.1667V3.83333C12.334 2.73067 11.4367 1.83333 10.334 1.83333H3.66732ZM11.0007 4.5C11.0007 4.132 10.702 3.83333 10.334 3.83333H7.66732C7.29932 3.83333 7.00065 4.132 7.00065 4.5C7.00065 4.868 7.29932 5.16667 7.66732 5.16667H10.334C10.702 5.16667 11.0007 4.868 11.0007 4.5ZM11.0007 8.5C11.0007 8.132 10.702 7.83333 10.334 7.83333H7.66732C7.29932 7.83333 7.00065 8.132 7.00065 8.5C7.00065 8.868 7.29932 9.16667 7.66732 9.16667H10.334C10.702 9.16667 11.0007 8.868 11.0007 8.5ZM11.0007 12.5C11.0007 12.132 10.702 11.8333 10.334 11.8333H7.66732C7.29932 11.8333 7.00065 12.132 7.00065 12.5C7.00065 12.868 7.29932 13.1667 7.66732 13.1667H10.334C10.702 13.1667 11.0007 12.868 11.0007 12.5ZM5.66732 5.16667V3.83333C5.66732 3.46533 5.36865 3.16667 5.00065 3.16667H3.66732C3.29932 3.16667 3.00065 3.46533 3.00065 3.83333V5.16667C3.00065 5.53467 3.29932 5.83333 3.66732 5.83333H5.00065C5.36865 5.83333 5.66732 5.53467 5.66732 5.16667ZM5.66732 9.16667V7.83333C5.66732 7.46533 5.36865 7.16667 5.00065 7.16667H3.66732C3.29932 7.16667 3.00065 7.46533 3.00065 7.83333V9.16667C3.00065 9.53467 3.29932 9.83333 3.66732 9.83333H5.00065C5.36865 9.83333 5.66732 9.53467 5.66732 9.16667ZM5.66732 13.1667V11.8333C5.66732 11.4653 5.36865 11.1667 5.00065 11.1667H3.66732C3.29932 11.1667 3.00065 11.4653 3.00065 11.8333V13.1667C3.00065 13.5347 3.29932 13.8333 3.66732 13.8333H5.00065C5.36865 13.8333 5.66732 13.5347 5.66732 13.1667Z" fill="#d3b74f"/>
</svg>
