<svg width="10" height="7" viewBox="0 0 10 7" fill="none" xmlns="http://www.w3.org/2000/svg">
<path d="M3.66641 5.4595L1.70691 3.5C1.61314 3.40626 1.48599 3.3536 1.35341 3.3536C1.22083 3.3536 1.09367 3.40626 0.999909 3.5C0.906173 3.59376 0.853516 3.72091 0.853516 3.8535C0.853516 3.98608 0.906173 4.11323 0.999909 4.207L2.95941 6.1665C3.05227 6.2594 3.16253 6.33309 3.28388 6.38337C3.40523 6.43365 3.5353 6.45953 3.66666 6.45953C3.79801 6.45953 3.92808 6.43365 4.04944 6.38337C4.17079 6.33309 4.28104 6.2594 4.37391 6.1665L8.99991 1.5405C9.09364 1.44673 9.1463 1.31958 9.1463 1.187C9.1463 1.05441 9.09364 0.92726 8.99991 0.833496C8.90614 0.739761 8.77899 0.687103 8.64641 0.687103C8.51383 0.687103 8.38667 0.739761 8.29291 0.833496L3.66641 5.4595Z" fill="#8A027D"/>
</svg>
