<svg width="39" height="36" viewBox="0 0 39 36" fill="none" xmlns="http://www.w3.org/2000/svg">
<path d="M10.9512 10.9869H8.07715V8.73134C8.07715 8.40392 8.36819 8.11287 8.69562 8.11287H10.3327C10.6602 8.11287 10.9512 8.40392 10.9512 8.73134V10.9869Z" stroke="black" stroke-width="0.5" stroke-linecap="round" stroke-linejoin="round"/>
<path d="M10.9873 10.4049H8.11328V10.9869H10.9873V10.4049Z" stroke="black" stroke-width="0.5" stroke-linecap="round" stroke-linejoin="round"/>
<path d="M12.4062 1.81903H0.946289V7.56716H12.4062V1.81903Z" stroke="black" stroke-width="0.5" stroke-linecap="round" stroke-linejoin="round"/>
<path d="M5.2393 10.9869H2.36523V8.73134C2.36523 8.40392 2.65628 8.11287 2.9837 8.11287H4.62083C4.94826 8.11287 5.2393 8.40392 5.2393 8.73134V10.9869Z" stroke="black" stroke-width="0.5" stroke-linecap="round" stroke-linejoin="round"/>
<path d="M5.2393 10.4049H2.36523V10.9869H5.2393V10.4049Z" stroke="black" stroke-width="0.5" stroke-linecap="round" stroke-linejoin="round"/>
<path d="M23.793 10.9869H20.9189V8.73134C20.9189 8.40392 21.21 8.11287 21.5374 8.11287H23.1745C23.502 8.11287 23.793 8.40392 23.793 8.73134V10.9869Z" stroke="black" stroke-width="0.5" stroke-linecap="round" stroke-linejoin="round"/>
<path d="M23.793 10.4049H20.9189V10.9869H23.793V10.4049Z" stroke="black" stroke-width="0.5" stroke-linecap="round" stroke-linejoin="round"/>
<path d="M25.2118 1.81903H13.752V7.56716H25.2118V1.81903Z" stroke="black" stroke-width="0.5" stroke-linecap="round" stroke-linejoin="round"/>
<path d="M18.0811 10.9869H15.207V8.73134C15.207 8.40392 15.4981 8.11287 15.8255 8.11287H17.4626C17.7901 8.11287 18.0811 8.40392 18.0811 8.73134V10.9869Z" stroke="black" stroke-width="0.5" stroke-linecap="round" stroke-linejoin="round"/>
<path d="M18.0811 10.4049H15.207V10.9869H18.0811V10.4049Z" stroke="black" stroke-width="0.5" stroke-linecap="round" stroke-linejoin="round"/>
<path d="M36.6358 10.9869H33.7617V8.73134C33.7617 8.40392 34.0528 8.11287 34.3802 8.11287H36.0173C36.3447 8.11287 36.6358 8.40392 36.6358 8.73134V10.9869Z" stroke="black" stroke-width="0.5" stroke-linecap="round" stroke-linejoin="round"/>
<path d="M36.6358 10.4049H33.7617V10.9869H36.6358V10.4049Z" stroke="black" stroke-width="0.5" stroke-linecap="round" stroke-linejoin="round"/>
<path d="M38.0546 1.81903H26.5947V7.56716H38.0546V1.81903Z" stroke="black" stroke-width="0.5" stroke-linecap="round" stroke-linejoin="round"/>
<path d="M30.8877 10.9869H28.0137V8.73134C28.0137 8.40392 28.3047 8.11287 28.6321 8.11287H30.2693C30.5967 8.11287 30.8877 8.40392 30.8877 8.73134V10.9869Z" stroke="black" stroke-width="0.5" stroke-linecap="round" stroke-linejoin="round"/>
<path d="M30.9239 10.4049H28.0498V10.9869H30.9239V10.4049Z" stroke="black" stroke-width="0.5" stroke-linecap="round" stroke-linejoin="round"/>
<path d="M10.9512 23.1017H8.07715V20.8461C8.07715 20.5187 8.36819 20.2276 8.69562 20.2276H10.3327C10.6602 20.2276 10.9512 20.5187 10.9512 20.8461V23.1017Z" stroke="black" stroke-width="0.5" stroke-linecap="round" stroke-linejoin="round"/>
<path d="M10.9873 22.5196H8.11328V23.1017H10.9873V22.5196Z" stroke="black" stroke-width="0.5" stroke-linecap="round" stroke-linejoin="round"/>
<path d="M12.4062 13.9338H0.946289V19.6819H12.4062V13.9338Z" stroke="black" stroke-width="0.5" stroke-linecap="round" stroke-linejoin="round"/>
<path d="M5.2393 23.1017H2.36523V20.8461C2.36523 20.5187 2.65628 20.2276 2.9837 20.2276H4.62083C4.94826 20.2276 5.2393 20.5187 5.2393 20.8461V23.1017Z" stroke="black" stroke-width="0.5" stroke-linecap="round" stroke-linejoin="round"/>
<path d="M5.2393 22.5196H2.36523V23.1017H5.2393V22.5196Z" stroke="black" stroke-width="0.5" stroke-linecap="round" stroke-linejoin="round"/>
<path d="M23.793 23.1017H20.9189V20.8461C20.9189 20.5187 21.21 20.2276 21.5374 20.2276H23.1745C23.502 20.2276 23.793 20.5187 23.793 20.8461V23.1017Z" stroke="black" stroke-width="0.5" stroke-linecap="round" stroke-linejoin="round"/>
<path d="M23.793 22.5196H20.9189V23.1017H23.793V22.5196Z" stroke="black" stroke-width="0.5" stroke-linecap="round" stroke-linejoin="round"/>
<path d="M25.2118 13.9338H13.752V19.6819H25.2118V13.9338Z" stroke="black" stroke-width="0.5" stroke-linecap="round" stroke-linejoin="round"/>
<path d="M18.0811 23.1017H15.207V20.8461C15.207 20.5187 15.4981 20.2276 15.8255 20.2276H17.4626C17.7901 20.2276 18.0811 20.5187 18.0811 20.8461V23.1017Z" stroke="black" stroke-width="0.5" stroke-linecap="round" stroke-linejoin="round"/>
<path d="M18.0811 22.5196H15.207V23.1017H18.0811V22.5196Z" stroke="black" stroke-width="0.5" stroke-linecap="round" stroke-linejoin="round"/>
<path d="M36.6358 23.1017H33.7617V20.8461C33.7617 20.5187 34.0528 20.2276 34.3802 20.2276H36.0173C36.3447 20.2276 36.6358 20.5187 36.6358 20.8461V23.1017Z" stroke="black" stroke-width="0.5" stroke-linecap="round" stroke-linejoin="round"/>
<path d="M36.6358 22.5196H33.7617V23.1017H36.6358V22.5196Z" stroke="black" stroke-width="0.5" stroke-linecap="round" stroke-linejoin="round"/>
<path d="M38.0546 13.9338H26.5947V19.6819H38.0546V13.9338Z" stroke="black" stroke-width="0.5" stroke-linecap="round" stroke-linejoin="round"/>
<path d="M30.8877 23.1017H28.0137V20.8461C28.0137 20.5187 28.3047 20.2276 28.6321 20.2276H30.2693C30.5967 20.2276 30.8877 20.5187 30.8877 20.8461V23.1017Z" stroke="black" stroke-width="0.5" stroke-linecap="round" stroke-linejoin="round"/>
<path d="M30.9239 22.5196H28.0498V23.1017H30.9239V22.5196Z" stroke="black" stroke-width="0.5" stroke-linecap="round" stroke-linejoin="round"/>
<path d="M10.9512 34.0159H8.07715V31.7603C8.07715 31.4328 8.36819 31.1418 8.69562 31.1418H10.3327C10.6602 31.1418 10.9512 31.4328 10.9512 31.7603V34.0159Z" stroke="black" stroke-width="0.5" stroke-linecap="round" stroke-linejoin="round"/>
<path d="M10.9873 33.4338H8.11328V34.0159H10.9873V33.4338Z" stroke="black" stroke-width="0.5" stroke-linecap="round" stroke-linejoin="round"/>
<path d="M12.4062 24.8479H0.946289V30.5961H12.4062V24.8479Z" stroke="black" stroke-width="0.5" stroke-linecap="round" stroke-linejoin="round"/>
<path d="M5.2393 34.0159H2.36523V31.7603C2.36523 31.4328 2.65628 31.1418 2.9837 31.1418H4.62083C4.94826 31.1418 5.2393 31.4328 5.2393 31.7603V34.0159Z" stroke="black" stroke-width="0.5" stroke-linecap="round" stroke-linejoin="round"/>
<path d="M5.2393 33.4338H2.36523V34.0159H5.2393V33.4338Z" stroke="black" stroke-width="0.5" stroke-linecap="round" stroke-linejoin="round"/>
<path d="M23.793 34.0159H20.9189V31.7603C20.9189 31.4328 21.21 31.1418 21.5374 31.1418H23.1745C23.502 31.1418 23.793 31.4328 23.793 31.7603V34.0159Z" stroke="black" stroke-width="0.5" stroke-linecap="round" stroke-linejoin="round"/>
<path d="M23.793 33.4338H20.9189V34.0159H23.793V33.4338Z" stroke="black" stroke-width="0.5" stroke-linecap="round" stroke-linejoin="round"/>
<path d="M25.2118 24.8479H13.752V30.5961H25.2118V24.8479Z" stroke="black" stroke-width="0.5" stroke-linecap="round" stroke-linejoin="round"/>
<path d="M18.0811 34.0159H15.207V31.7603C15.207 31.4328 15.4981 31.1418 15.8255 31.1418H17.4626C17.7901 31.1418 18.0811 31.4328 18.0811 31.7603V34.0159Z" stroke="black" stroke-width="0.5" stroke-linecap="round" stroke-linejoin="round"/>
<path d="M18.0811 33.4338H15.207V34.0159H18.0811V33.4338Z" stroke="black" stroke-width="0.5" stroke-linecap="round" stroke-linejoin="round"/>
<path d="M36.6358 34.0159H33.7617V31.7603C33.7617 31.4328 34.0528 31.1418 34.3802 31.1418H36.0173C36.3447 31.1418 36.6358 31.4328 36.6358 31.7603V34.0159Z" stroke="black" stroke-width="0.5" stroke-linecap="round" stroke-linejoin="round"/>
<path d="M36.6358 33.4338H33.7617V34.0159H36.6358V33.4338Z" stroke="black" stroke-width="0.5" stroke-linecap="round" stroke-linejoin="round"/>
<path d="M38.0546 24.8479H26.5947V30.5961H38.0546V24.8479Z" stroke="black" stroke-width="0.5" stroke-linecap="round" stroke-linejoin="round"/>
<path d="M30.8877 34.0159H28.0137V31.7603C28.0137 31.4328 28.3047 31.1418 28.6321 31.1418H30.2693C30.5967 31.1418 30.8877 31.4328 30.8877 31.7603V34.0159Z" stroke="black" stroke-width="0.5" stroke-linecap="round" stroke-linejoin="round"/>
<path d="M30.9239 33.4338H28.0498V34.0159H30.9239V33.4338Z" stroke="black" stroke-width="0.5" stroke-linecap="round" stroke-linejoin="round"/>
</svg>
