<svg width="14" height="15" viewBox="0 0 14 15" fill="none" xmlns="http://www.w3.org/2000/svg">
<g clip-path="url(#clip0_2097_508)">
<path d="M9.4942 8.73624L7.54222 7.27225V4.29009C7.54222 3.99024 7.29984 3.74786 6.99999 3.74786C6.70014 3.74786 6.45776 3.99024 6.45776 4.29009V7.5434C6.45776 7.71418 6.53802 7.87524 6.67465 7.97718L8.84351 9.60383C8.9411 9.67703 9.05498 9.71227 9.16829 9.71227C9.33367 9.71227 9.49634 9.63798 9.60262 9.49484C9.78268 9.25569 9.73387 8.91572 9.4942 8.73624Z" fill="#4F4F4F"/>
<path d="M7 0.5C3.13996 0.5 0 3.63996 0 7.5C0 11.36 3.13996 14.5 7 14.5C10.86 14.5 14 11.36 14 7.5C14 3.63996 10.86 0.5 7 0.5ZM7 13.4156C3.73857 13.4156 1.08443 10.7614 1.08443 7.5C1.08443 4.23857 3.73857 1.58443 7 1.58443C10.262 1.58443 12.9156 4.23857 12.9156 7.5C12.9156 10.7614 10.2614 13.4156 7 13.4156Z" fill="#4F4F4F"/>
</g>
<defs>
<clipPath id="clip0_2097_508">
<rect width="14" height="14" fill="white" transform="translate(0 0.5)"/>
</clipPath>
</defs>
</svg>
