<svg width="32" height="32" viewBox="0 0 32 32" fill="none" xmlns="http://www.w3.org/2000/svg">
<g clip-path="url(#clip0_2756_4228)">
<path d="M23.9653 9.52797C23.524 9.43997 23.1627 9.16397 22.976 8.7693C20.9093 4.40797 16.1187 1.9693 11.3307 2.85197C6.968 3.65197 3.548 7.13463 2.81867 11.52C2.60267 12.8146 2.61867 14.1106 2.86267 15.3733C2.94267 15.7853 2.76533 16.244 2.40133 16.5746C0.874667 17.9626 0 19.94 0 22.0013C0 26.044 3.28933 29.3346 7.33333 29.3346H22C27.5147 29.3346 32 24.8493 32 19.3346C32 14.5813 28.6213 10.456 23.9653 9.52797ZM20.1613 18.2773C19.9013 18.5373 19.56 18.668 19.2187 18.668C18.8773 18.668 18.536 18.5373 18.276 18.2773L16 16.0013V22.668C16 23.4053 15.4027 24.0013 14.6667 24.0013C13.9307 24.0013 13.3333 23.4053 13.3333 22.668V16.0013L11.0573 18.2773C10.536 18.7986 9.69333 18.7986 9.172 18.2773C8.65067 17.756 8.65067 16.9133 9.172 16.392L12.7813 12.7826C13.296 12.268 13.972 12.0093 14.648 12.0053L14.6667 12.0013L14.6853 12.0053C15.3627 12.0093 16.0373 12.268 16.552 12.7826L20.1613 16.392C20.6827 16.9133 20.6827 17.756 20.1613 18.2773Z" fill="#8A027D"/>
</g>
<defs>
<clipPath id="clip0_2756_4228">
<rect width="32" height="32" fill="white"/>
</clipPath>
</defs>
</svg>
