<svg width="20" height="20" viewBox="0 0 20 20" fill="none" xmlns="http://www.w3.org/2000/svg">
<g clip-path="url(#clip0_2756_2872)">
<path d="M11.2499 8.75C11.2499 9.44 10.6899 10 9.99986 10C9.30986 10 8.74986 9.44 8.74986 8.75C8.74986 8.06 9.30986 7.5 9.99986 7.5C10.6899 7.5 11.2499 8.06 11.2499 8.75ZM14.1665 7.5C13.4765 7.5 12.9165 8.06 12.9165 8.75C12.9165 9.44 13.4765 10 14.1665 10C14.8565 10 15.4165 9.44 15.4165 8.75C15.4165 8.06 14.8565 7.5 14.1665 7.5ZM5.83319 7.5C5.14319 7.5 4.58319 8.06 4.58319 8.75C4.58319 9.44 5.14319 10 5.83319 10C6.52319 10 7.08319 9.44 7.08319 8.75C7.08319 8.06 6.52319 7.5 5.83319 7.5ZM19.9999 3.33333V13.3333C19.9999 15.1717 18.5049 16.6667 16.6665 16.6667H14.2899L11.0832 19.3167C10.7824 19.585 10.3965 19.72 10.0065 19.72C9.60986 19.72 9.21069 19.58 8.89236 19.2975L5.76819 16.6667H3.33236C1.49402 16.6667 -0.000976562 15.1717 -0.000976562 13.3333V3.33333C-0.000143229 1.495 1.49486 0 3.33319 0H16.6665C18.5049 0 19.9999 1.495 19.9999 3.33333ZM18.3332 3.33333C18.3332 2.41417 17.5857 1.66667 16.6665 1.66667H3.33319C2.41402 1.66667 1.66652 2.41417 1.66652 3.33333V13.3333C1.66652 14.2525 2.41402 15 3.33319 15H6.07319C6.26902 15 6.45986 15.0692 6.61069 15.1958L9.98402 18.0375L13.4599 15.1908C13.609 15.0675 13.7965 15 13.9907 15H16.6674C17.5865 15 18.334 14.2525 18.334 13.3333L18.3332 3.33333Z" fill="#C3C3D1"/>
</g>
<defs>
<clipPath id="clip0_2756_2872">
<rect width="20" height="20" fill="white"/>
</clipPath>
</defs>
</svg>
