<svg width="39" height="39" viewBox="0 0 39 39" fill="none" xmlns="http://www.w3.org/2000/svg">
<g clip-path="url(#clip0_2097_2247)">
<path d="M16.0342 0.0582123H18.3542V1.86269C18.3542 2.12463 18.1193 2.35747 17.855 2.35747H16.5334C16.2691 2.35747 16.0342 2.12463 16.0342 1.86269V0.0582123Z" stroke="black" stroke-width="0.5" stroke-linecap="round" stroke-linejoin="round"/>
<path d="M18.3542 0.0582123H16.0342V0.523884H18.3542V0.0582123Z" stroke="black" stroke-width="0.5" stroke-linecap="round" stroke-linejoin="round"/>
<path d="M24.1394 2.82314H14.8887V7.42164H24.1394V2.82314Z" stroke="black" stroke-width="0.5" stroke-linecap="round" stroke-linejoin="round"/>
<path d="M20.6739 0.0582123H22.9939V1.86269C22.9939 2.12463 22.759 2.35747 22.4947 2.35747H21.1438C20.8795 2.35747 20.6445 2.12463 20.6445 1.86269L20.6739 0.0582123Z" stroke="black" stroke-width="0.5" stroke-linecap="round" stroke-linejoin="round"/>
<path d="M22.9939 0.0582123H20.6738V0.523884H22.9939V0.0582123Z" stroke="black" stroke-width="0.5" stroke-linecap="round" stroke-linejoin="round"/>
<path d="M4.9043 10.2739H7.22433V12.0784C7.22433 12.3403 6.98939 12.5731 6.72508 12.5731H5.40354C5.13924 12.5731 4.9043 12.3403 4.9043 12.0784V10.2739Z" stroke="black" stroke-width="0.5" stroke-linecap="round" stroke-linejoin="round"/>
<path d="M7.22433 10.2448H4.9043V10.7105H7.22433V10.2448Z" stroke="black" stroke-width="0.5" stroke-linecap="round" stroke-linejoin="round"/>
<path d="M17.6202 13.0097H3.75879V17.6082H17.6202V13.0097Z" stroke="black" stroke-width="0.5" stroke-linecap="round" stroke-linejoin="round"/>
<path d="M7.22433 20.344H4.9043V18.5396C4.9043 18.2776 5.13924 18.0448 5.40354 18.0448H6.72508C6.98939 18.0448 7.22433 18.2776 7.22433 18.5396V20.344Z" stroke="black" stroke-width="0.5" stroke-linecap="round" stroke-linejoin="round"/>
<path d="M7.22433 19.8784H4.9043V20.344H7.22433V19.8784Z" stroke="black" stroke-width="0.5" stroke-linecap="round" stroke-linejoin="round"/>
<path d="M16.4743 20.344H14.1543V18.5396C14.1543 18.2776 14.3892 18.0448 14.6535 18.0448H15.9751C16.2394 18.0448 16.4743 18.2776 16.4743 18.5396V20.344Z" stroke="black" stroke-width="0.5" stroke-linecap="round" stroke-linejoin="round"/>
<path d="M16.4743 19.8784H14.1543V20.344H16.4743V19.8784Z" stroke="black" stroke-width="0.5" stroke-linecap="round" stroke-linejoin="round"/>
<path d="M14.1543 10.2448H16.4743V12.0493C16.4743 12.3112 16.2394 12.544 15.9751 12.544H14.6535C14.3892 12.544 14.1543 12.3112 14.1543 12.0493V10.2448Z" stroke="black" stroke-width="0.5" stroke-linecap="round" stroke-linejoin="round"/>
<path d="M16.4743 10.2448H14.1543V10.7105H16.4743V10.2448Z" stroke="black" stroke-width="0.5" stroke-linecap="round" stroke-linejoin="round"/>
<path d="M11.864 20.344H9.54395V18.5396C9.54395 18.2776 9.77889 18.0448 10.0432 18.0448H11.3647C11.629 18.0448 11.864 18.2776 11.864 18.5396V20.344Z" stroke="black" stroke-width="0.5" stroke-linecap="round" stroke-linejoin="round"/>
<path d="M11.864 19.8784H9.54395V20.344H11.864V19.8784Z" stroke="black" stroke-width="0.5" stroke-linecap="round" stroke-linejoin="round"/>
<path d="M9.54395 10.2448H11.864V12.0493C11.864 12.3112 11.629 12.544 11.3647 12.544H10.0432C9.77889 12.544 9.54395 12.3112 9.54395 12.0493V10.2448Z" stroke="black" stroke-width="0.5" stroke-linecap="round" stroke-linejoin="round"/>
<path d="M11.864 10.2448H9.54395V10.7105H11.864V10.2448Z" stroke="black" stroke-width="0.5" stroke-linecap="round" stroke-linejoin="round"/>
<path d="M0.998047 16.444V14.1448H2.81883C3.08314 14.1448 3.31808 14.3776 3.31808 14.6396V15.9493C3.31808 16.2112 3.08314 16.444 2.81883 16.444H0.998047Z" stroke="black" stroke-width="0.5" stroke-linecap="round" stroke-linejoin="round"/>
<path d="M1.46793 14.1448H0.998047V16.444H1.46793V14.1448Z" stroke="black" stroke-width="0.5" stroke-linecap="round" stroke-linejoin="round"/>
<path d="M22.5244 10.2739H24.8444V12.0784C24.8444 12.3403 24.6095 12.5731 24.3452 12.5731H23.0237C22.7594 12.5731 22.5244 12.3403 22.5244 12.0784V10.2739Z" stroke="black" stroke-width="0.5" stroke-linecap="round" stroke-linejoin="round"/>
<path d="M24.8444 10.2739H22.5244V10.7396H24.8444V10.2739Z" stroke="black" stroke-width="0.5" stroke-linecap="round" stroke-linejoin="round"/>
<path d="M35.2403 13.0097H21.3789V17.6082H35.2403V13.0097Z" stroke="black" stroke-width="0.5" stroke-linecap="round" stroke-linejoin="round"/>
<path d="M24.8444 20.344H22.5244V18.5395C22.5244 18.2776 22.7594 18.0448 23.0237 18.0448H24.3452C24.6095 18.0448 24.8444 18.2776 24.8444 18.5395V20.344Z" stroke="black" stroke-width="0.5" stroke-linecap="round" stroke-linejoin="round"/>
<path d="M24.8444 19.8784H22.5244V20.344H24.8444V19.8784Z" stroke="black" stroke-width="0.5" stroke-linecap="round" stroke-linejoin="round"/>
<path d="M34.0954 20.344H31.7754V18.5395C31.7754 18.2776 32.0103 18.0448 32.2746 18.0448H33.5962C33.8605 18.0448 34.0954 18.2776 34.0954 18.5395V20.344Z" stroke="black" stroke-width="0.5" stroke-linecap="round" stroke-linejoin="round"/>
<path d="M34.0954 19.8784H31.7754V20.344H34.0954V19.8784Z" stroke="black" stroke-width="0.5" stroke-linecap="round" stroke-linejoin="round"/>
<path d="M31.7754 10.2739H34.0954V12.0784C34.0954 12.3403 33.8605 12.5731 33.5962 12.5731H32.2746C32.0103 12.5731 31.7754 12.3403 31.7754 12.0784V10.2739Z" stroke="black" stroke-width="0.5" stroke-linecap="round" stroke-linejoin="round"/>
<path d="M34.0954 10.2739H31.7754V10.7396H34.0954V10.2739Z" stroke="black" stroke-width="0.5" stroke-linecap="round" stroke-linejoin="round"/>
<path d="M29.4841 20.344H27.1641V18.5395C27.1641 18.2776 27.399 18.0448 27.6633 18.0448H28.9848C29.2492 18.0448 29.4841 18.2776 29.4841 18.5395V20.344Z" stroke="black" stroke-width="0.5" stroke-linecap="round" stroke-linejoin="round"/>
<path d="M29.4841 19.8784H27.1641V20.344H29.4841V19.8784Z" stroke="black" stroke-width="0.5" stroke-linecap="round" stroke-linejoin="round"/>
<path d="M27.1641 10.2739H29.4841V12.0784C29.4841 12.3403 29.2492 12.5731 28.9848 12.5731H27.6633C27.399 12.5731 27.1641 12.3403 27.1641 12.0784V10.2739Z" stroke="black" stroke-width="0.5" stroke-linecap="round" stroke-linejoin="round"/>
<path d="M29.4841 10.2739H27.1641V10.7396H29.4841V10.2739Z" stroke="black" stroke-width="0.5" stroke-linecap="round" stroke-linejoin="round"/>
<path d="M38.03 14.1448V16.444H36.2092C35.9449 16.444 35.71 16.2112 35.71 15.9493V14.6396C35.71 14.3776 35.9449 14.1448 36.2092 14.1448H38.03Z" stroke="black" stroke-width="0.5" stroke-linecap="round" stroke-linejoin="round"/>
<path d="M38.0304 14.1448H37.5605V16.444H38.0304V14.1448Z" stroke="black" stroke-width="0.5" stroke-linecap="round" stroke-linejoin="round"/>
<path d="M4.9043 26.2814H7.22433V28.0858C7.22433 28.3478 6.98939 28.5806 6.72508 28.5806H5.40354C5.13924 28.5806 4.9043 28.3478 4.9043 28.0858V26.2814Z" stroke="black" stroke-width="0.5" stroke-linecap="round" stroke-linejoin="round"/>
<path d="M7.22433 26.2522H4.9043V26.7179H7.22433V26.2522Z" stroke="black" stroke-width="0.5" stroke-linecap="round" stroke-linejoin="round"/>
<path d="M17.6202 29.0172H3.75879V33.6157H17.6202V29.0172Z" stroke="black" stroke-width="0.5" stroke-linecap="round" stroke-linejoin="round"/>
<path d="M7.22433 36.3515H4.9043V34.547C4.9043 34.2851 5.13924 34.0522 5.40354 34.0522H6.72508C6.98939 34.0522 7.22433 34.2851 7.22433 34.547V36.3515Z" stroke="black" stroke-width="0.5" stroke-linecap="round" stroke-linejoin="round"/>
<path d="M7.22433 35.8858H4.9043V36.3515H7.22433V35.8858Z" stroke="black" stroke-width="0.5" stroke-linecap="round" stroke-linejoin="round"/>
<path d="M16.4743 36.3515H14.1543V34.547C14.1543 34.2851 14.3892 34.0522 14.6535 34.0522H15.9751C16.2394 34.0522 16.4743 34.2851 16.4743 34.547V36.3515Z" stroke="black" stroke-width="0.5" stroke-linecap="round" stroke-linejoin="round"/>
<path d="M16.4743 35.8858H14.1543V36.3515H16.4743V35.8858Z" stroke="black" stroke-width="0.5" stroke-linecap="round" stroke-linejoin="round"/>
<path d="M14.1543 26.2522H16.4743V28.0567C16.4743 28.3187 16.2394 28.5515 15.9751 28.5515H14.6535C14.3892 28.5515 14.1543 28.3187 14.1543 28.0567V26.2522Z" stroke="black" stroke-width="0.5" stroke-linecap="round" stroke-linejoin="round"/>
<path d="M16.4743 26.2522H14.1543V26.7179H16.4743V26.2522Z" stroke="black" stroke-width="0.5" stroke-linecap="round" stroke-linejoin="round"/>
<path d="M11.864 36.3515H9.54395V34.547C9.54395 34.2851 9.77889 34.0522 10.0432 34.0522H11.3647C11.629 34.0522 11.864 34.2851 11.864 34.547V36.3515Z" stroke="black" stroke-width="0.5" stroke-linecap="round" stroke-linejoin="round"/>
<path d="M11.864 35.8858H9.54395V36.3515H11.864V35.8858Z" stroke="black" stroke-width="0.5" stroke-linecap="round" stroke-linejoin="round"/>
<path d="M9.54395 26.2522H11.864V28.0567C11.864 28.3187 11.629 28.5515 11.3647 28.5515H10.0432C9.77889 28.5515 9.54395 28.3187 9.54395 28.0567V26.2522Z" stroke="black" stroke-width="0.5" stroke-linecap="round" stroke-linejoin="round"/>
<path d="M11.864 26.2522H9.54395V26.7179H11.864V26.2522Z" stroke="black" stroke-width="0.5" stroke-linecap="round" stroke-linejoin="round"/>
<path d="M0.998047 32.4515V30.1522H2.81883C3.08314 30.1522 3.31808 30.3851 3.31808 30.647V31.9567C3.31808 32.2187 3.08314 32.4515 2.81883 32.4515H0.998047Z" stroke="black" stroke-width="0.5" stroke-linecap="round" stroke-linejoin="round"/>
<path d="M1.46793 30.1522H0.998047V32.4515H1.46793V30.1522Z" stroke="black" stroke-width="0.5" stroke-linecap="round" stroke-linejoin="round"/>
<path d="M22.5244 26.2522H24.8444V28.0567C24.8444 28.3187 24.6095 28.5515 24.3452 28.5515H23.0237C22.7594 28.5515 22.5244 28.3187 22.5244 28.0567V26.2522Z" stroke="black" stroke-width="0.5" stroke-linecap="round" stroke-linejoin="round"/>
<path d="M24.8444 26.2814H22.5244V26.747H24.8444V26.2814Z" stroke="black" stroke-width="0.5" stroke-linecap="round" stroke-linejoin="round"/>
<path d="M35.2403 29.0172H21.3789V33.6157H35.2403V29.0172Z" stroke="black" stroke-width="0.5" stroke-linecap="round" stroke-linejoin="round"/>
<path d="M24.8444 36.3515H22.5244V34.547C22.5244 34.2851 22.7594 34.0522 23.0237 34.0522H24.3452C24.6095 34.0522 24.8444 34.2851 24.8444 34.547V36.3515Z" stroke="black" stroke-width="0.5" stroke-linecap="round" stroke-linejoin="round"/>
<path d="M24.8444 35.8858H22.5244V36.3515H24.8444V35.8858Z" stroke="black" stroke-width="0.5" stroke-linecap="round" stroke-linejoin="round"/>
<path d="M34.0954 36.3515H31.7754V34.547C31.7754 34.2851 32.0103 34.0522 32.2746 34.0522H33.5962C33.8605 34.0522 34.0954 34.2851 34.0954 34.547V36.3515Z" stroke="black" stroke-width="0.5" stroke-linecap="round" stroke-linejoin="round"/>
<path d="M34.0954 35.8858H31.7754V36.3515H34.0954V35.8858Z" stroke="black" stroke-width="0.5" stroke-linecap="round" stroke-linejoin="round"/>
<path d="M31.7754 26.2813H34.0954V28.0858C34.0954 28.3478 33.8605 28.5806 33.5962 28.5806H32.2746C32.0103 28.5806 31.7754 28.3478 31.7754 28.0858V26.2813Z" stroke="black" stroke-width="0.5" stroke-linecap="round" stroke-linejoin="round"/>
<path d="M34.0954 26.2813H31.7754V26.747H34.0954V26.2813Z" stroke="black" stroke-width="0.5" stroke-linecap="round" stroke-linejoin="round"/>
<path d="M29.4841 36.3515H27.1641V34.547C27.1641 34.2851 27.399 34.0522 27.6633 34.0522H28.9848C29.2492 34.0522 29.4841 34.2851 29.4841 34.547V36.3515Z" stroke="black" stroke-width="0.5" stroke-linecap="round" stroke-linejoin="round"/>
<path d="M29.4841 35.8858H27.1641V36.3515H29.4841V35.8858Z" stroke="black" stroke-width="0.5" stroke-linecap="round" stroke-linejoin="round"/>
<path d="M27.1641 26.2522H29.4841V28.0567C29.4841 28.3187 29.2492 28.5515 28.9848 28.5515H27.6633C27.399 28.5515 27.1641 28.3187 27.1641 28.0567V26.2522Z" stroke="black" stroke-width="0.5" stroke-linecap="round" stroke-linejoin="round"/>
<path d="M29.4841 26.2522H27.1641V26.7179H29.4841V26.2522Z" stroke="black" stroke-width="0.5" stroke-linecap="round" stroke-linejoin="round"/>
<path d="M38.03 30.1522V32.4515H36.2092C35.9449 32.4515 35.71 32.2187 35.71 31.9567V30.647C35.71 30.3851 35.9449 30.1522 36.2092 30.1522H38.03Z" stroke="black" stroke-width="0.5" stroke-linecap="round" stroke-linejoin="round"/>
<path d="M38.0304 30.1522H37.5605V32.4515H38.0304V30.1522Z" stroke="black" stroke-width="0.5" stroke-linecap="round" stroke-linejoin="round"/>
</g>
<defs>
<clipPath id="clip0_2097_2247">
<rect width="39" height="39" fill="white"/>
</clipPath>
</defs>
</svg>
