<svg width="54" height="36" viewBox="0 0 54 36" fill="none" xmlns="http://www.w3.org/2000/svg">
<path d="M52.875 26.9999H49.3522C49.428 26.629 49.5 26.2561 49.5 25.8749C49.5 22.935 47.2346 20.5147 44.3561 20.2708C43.3915 18.5801 41.3568 17.6483 39.4563 18.1284C37.8479 15.8564 34.4883 15.0852 32.0603 16.519C30.1688 15.4034 27.7365 15.6261 25.9828 16.8594L22.0913 13.746C21.8584 13.5604 21.5617 13.4801 21.2629 13.5065C20.9662 13.5395 20.696 13.6888 20.5092 13.9218L16.2945 19.1921L15.4358 18.3306C15.2248 18.1197 14.937 18 14.6381 18C14.3393 18 14.0536 18.1186 13.8427 18.3296L5.17229 26.9999H1.12504C0.503191 26.9999 0 27.5031 0 28.125C0 32.4668 3.5332 36 7.87504 36H46.1251C50.4668 36 54 32.4668 54 28.125C54 27.5031 53.4968 26.9999 52.875 26.9999ZM16.875 26.9999H8.35376L14.636 20.7169L17.977 24.0685C17.2954 24.8576 16.875 25.8778 16.875 26.9999ZM20.3401 22.6197C20.1767 22.6583 20.0226 22.719 19.8664 22.7751L17.8938 20.7963L21.5639 16.206L24.213 18.3262C22.2256 18.9463 20.7132 20.5779 20.3401 22.6197Z" fill="#8A027D"/>
<path d="M13.4999 10.125C13.4999 10.7468 14.0031 11.25 14.625 11.25C15.2468 11.25 15.75 10.7468 15.75 10.125C15.75 8.73406 15.3721 7.97933 15.0689 7.37183C14.8118 6.85661 14.6251 6.4841 14.6251 5.62495C14.6251 4.7658 14.8119 4.39339 15.0689 3.87807C15.3721 3.27057 15.75 2.51573 15.75 1.12491C15.75 0.503069 15.2468 -0.00012207 14.625 -0.00012207C14.0031 -1.66016e-05 13.4999 0.503175 13.4999 1.12502C13.4999 1.98417 13.3131 2.35658 13.0561 2.8719C12.7529 3.4794 12.375 4.23424 12.375 5.62505C12.375 7.01587 12.7529 7.77071 13.0561 8.37821C13.3131 8.89342 13.4999 9.26594 13.4999 10.125Z" fill="#8A027D"/>
<path d="M26.9999 10.125C26.9999 10.7468 27.5031 11.25 28.125 11.25C28.7468 11.25 29.25 10.7468 29.25 10.125C29.25 8.73406 28.8721 7.97933 28.5689 7.37183C28.3118 6.85661 28.1251 6.4841 28.1251 5.62495C28.1251 4.7658 28.3119 4.39339 28.5689 3.87807C28.8721 3.27057 29.25 2.51573 29.25 1.12491C29.25 0.503069 28.7468 -0.00012207 28.125 -0.00012207C27.5031 -1.66016e-05 26.9999 0.503175 26.9999 1.12502C26.9999 1.98417 26.8131 2.35658 26.5561 2.8719C26.2529 3.4794 25.875 4.23424 25.875 5.62505C25.875 7.01587 26.2529 7.77071 26.5561 8.37821C26.8131 8.89342 26.9999 9.26594 26.9999 10.125Z" fill="#8A027D"/>
<path d="M40.4999 10.125C40.4999 10.7468 41.0031 11.25 41.625 11.25C42.2468 11.25 42.75 10.7468 42.75 10.125C42.75 8.73406 42.3721 7.97933 42.0689 7.37183C41.8117 6.85661 41.6251 6.4841 41.6251 5.62495C41.6251 4.7658 41.8119 4.39339 42.0689 3.87807C42.3721 3.27057 42.75 2.51573 42.75 1.12491C42.75 0.503069 42.2468 -0.00012207 41.625 -0.00012207C41.0031 -0.00012207 40.4999 0.503175 40.4999 1.12502C40.4999 1.98417 40.3131 2.35658 40.0561 2.8719C39.7529 3.4794 39.375 4.23424 39.375 5.62505C39.375 7.01587 39.7529 7.77071 40.0561 8.37821C40.3131 8.89342 40.4999 9.26594 40.4999 10.125Z" fill="#8A027D"/>
</svg>
