<svg width="16" height="17" viewBox="0 0 16 17" fill="none" xmlns="http://www.w3.org/2000/svg">
<g clip-path="url(#clip0_2756_9164)">
<path d="M15.9991 9.83733C15.9983 9.55773 15.9385 9.28144 15.8236 9.02653C15.7087 8.77161 15.5414 8.54381 15.3324 8.358V7.16667C15.3305 5.39915 14.6275 3.70459 13.3776 2.45477C12.1278 1.20494 10.4333 0.501941 8.66575 0.5L7.33241 0.5C5.5649 0.501941 3.87033 1.20494 2.62051 2.45477C1.37069 3.70459 0.667688 5.39915 0.665747 7.16667V8.39133C0.458591 8.58683 0.293552 8.82257 0.180751 9.08412C0.0679501 9.34567 0.00976563 9.6275 0.00976562 9.91233C0.00976563 10.1972 0.0679501 10.479 0.180751 10.7405C0.293552 11.0021 0.458591 11.2378 0.665747 11.4333V11.8333C0.667159 13.0706 1.15928 14.2567 2.03414 15.1316C2.90901 16.0065 4.09517 16.4986 5.33241 16.5H10.6657C11.903 16.4986 13.0892 16.0065 13.964 15.1316C14.8389 14.2567 15.331 13.0706 15.3324 11.8333V11.3173C15.5414 11.1315 15.7089 10.9035 15.8237 10.6485C15.9386 10.3935 15.9984 10.117 15.9991 9.83733ZM1.87375 10.6053C1.70752 10.5549 1.56459 10.4471 1.47042 10.3011C1.37624 10.1552 1.33694 9.98053 1.35951 9.8083C1.38208 9.63606 1.46505 9.47743 1.59366 9.36066C1.72226 9.24389 1.88814 9.17656 2.06175 9.17067H13.9991C14.1759 9.17067 14.3455 9.2409 14.4705 9.36593C14.5955 9.49095 14.6657 9.66052 14.6657 9.83733C14.6657 10.0141 14.5955 10.1837 14.4705 10.3087C14.3455 10.4338 14.1759 10.504 13.9991 10.504H11.3324C10.0284 10.504 8.67975 11.0293 7.08975 12.158C6.76962 12.3803 6.38918 12.4995 5.99941 12.4995C5.60965 12.4995 5.2292 12.3803 4.90908 12.158C4.75708 12.05 4.61108 11.9373 4.46441 11.8247C3.73819 11.1744 2.8377 10.7505 1.87375 10.6053ZM1.99908 7.16667C2.00067 5.75267 2.56308 4.39703 3.56293 3.39718C4.56278 2.39733 5.91841 1.83492 7.33241 1.83333H8.66575C10.0797 1.83492 11.4354 2.39733 12.4352 3.39718C13.4351 4.39703 13.9975 5.75267 13.9991 7.16667V7.83733L1.99908 7.844V7.16667ZM10.6657 15.1667H5.33241C4.47854 15.1644 3.65817 14.8341 3.04089 14.2442C2.42361 13.6542 2.05661 12.8496 2.01575 11.9967C2.62086 12.1643 3.18017 12.4668 3.65175 12.8813C3.81108 13.0047 3.97108 13.1273 4.13775 13.2453C4.68419 13.625 5.33368 13.8285 5.99908 13.8285C6.66448 13.8285 7.31397 13.625 7.86041 13.2453C8.84676 12.4324 10.0584 11.941 11.3324 11.8373H13.9991C13.998 12.7207 13.6464 13.5675 13.0214 14.1918C12.3964 14.816 11.5491 15.1667 10.6657 15.1667ZM5.99908 3.83333C5.99908 3.65652 6.06932 3.48695 6.19434 3.36193C6.31937 3.2369 6.48894 3.16667 6.66575 3.16667C6.84256 3.16667 7.01213 3.2369 7.13715 3.36193C7.26218 3.48695 7.33241 3.65652 7.33241 3.83333C7.33241 4.01014 7.26218 4.17971 7.13715 4.30474C7.01213 4.42976 6.84256 4.5 6.66575 4.5C6.48894 4.5 6.31937 4.42976 6.19434 4.30474C6.06932 4.17971 5.99908 4.01014 5.99908 3.83333ZM3.99908 5.83333C3.99908 5.65652 4.06932 5.48695 4.19434 5.36193C4.31937 5.2369 4.48894 5.16667 4.66575 5.16667C4.84256 5.16667 5.01213 5.2369 5.13715 5.36193C5.26218 5.48695 5.33241 5.65652 5.33241 5.83333C5.33241 6.01014 5.26218 6.17971 5.13715 6.30474C5.01213 6.42976 4.84256 6.5 4.66575 6.5C4.48894 6.5 4.31937 6.42976 4.19434 6.30474C4.06932 6.17971 3.99908 6.01014 3.99908 5.83333Z" fill="#d3b74f"/>
</g>
<defs>
<clipPath id="clip0_2756_9164">
<rect width="16" height="16" fill="white" transform="translate(0 0.5)"/>
</clipPath>
</defs>
</svg>
