<svg width="24" height="24" viewBox="0 0 24 24" fill="none" xmlns="http://www.w3.org/2000/svg">
<g clip-path="url(#clip0_2097_1241)">
<path d="M21.6669 11.0036C21.9267 10.6012 22.0781 10.1228 22.0781 9.60938C22.0781 8.43028 21.2822 7.43428 20.1997 7.12852C20.1438 5.68177 19.2101 4.45664 17.9169 3.97228C18.1767 3.57 18.3281 3.09159 18.3281 2.57812C18.3281 1.15655 17.1716 0 15.75 0C14.3284 0 13.1719 1.15655 13.1719 2.57812C13.1719 3.09159 13.3233 3.57 13.5831 3.97233C12.9486 4.20998 12.4003 4.62567 12 5.15869C11.5996 4.62563 11.0514 4.20994 10.4169 3.97233C10.6767 3.57 10.8281 3.09159 10.8281 2.57812C10.8281 1.15655 9.67158 0 8.25 0C6.82842 0 5.67188 1.15655 5.67188 2.57812C5.67188 3.09159 5.82333 3.57 6.08306 3.97233C4.78983 4.45669 3.85617 5.68177 3.80034 7.12856C2.71781 7.43428 1.92188 8.43028 1.92188 9.60938C1.92188 10.1228 2.07333 10.6012 2.33306 11.0036C0.999141 11.5032 0.046875 12.7907 0.046875 14.2969V23.2969C0.046875 23.6852 0.361687 24 0.75 24H23.25C23.6383 24 23.9531 23.6852 23.9531 23.2969V14.2969C23.9531 12.7907 23.0009 11.5032 21.6669 11.0036ZM19.5 8.4375C20.1462 8.4375 20.6719 8.9632 20.6719 9.60938C20.6719 10.2555 20.1462 10.7812 19.5 10.7812C18.8538 10.7812 18.3281 10.2555 18.3281 9.60938C18.3281 8.9632 18.8538 8.4375 19.5 8.4375ZM15.75 1.40625C16.3962 1.40625 16.9219 1.93195 16.9219 2.57812C16.9219 3.2243 16.3962 3.75 15.75 3.75C15.1038 3.75 14.5781 3.2243 14.5781 2.57812C14.5781 1.93195 15.1038 1.40625 15.75 1.40625ZM14.8125 5.15625H16.6875C17.8053 5.15625 18.7223 6.03038 18.7921 7.13086C17.7138 7.43934 16.9219 8.43328 16.9219 9.60938C16.9219 10.1228 17.0733 10.6012 17.3331 11.0036C16.6986 11.2412 16.1503 11.6569 15.75 12.1899C15.3496 11.6569 14.8014 11.2412 14.1669 11.0036C14.4267 10.6012 14.5781 10.1228 14.5781 9.60938C14.5781 8.43328 13.7862 7.43934 12.7079 7.13086C12.7777 6.03038 13.6947 5.15625 14.8125 5.15625ZM15.0469 14.2969V15.4688H8.95312V14.2969C8.95312 13.1338 9.89939 12.1875 11.0625 12.1875H12.9375C14.1006 12.1875 15.0469 13.1338 15.0469 14.2969ZM12 8.4375C12.6462 8.4375 13.1719 8.9632 13.1719 9.60938C13.1719 10.2555 12.6462 10.7812 12 10.7812C11.3538 10.7812 10.8281 10.2555 10.8281 9.60938C10.8281 8.9632 11.3538 8.4375 12 8.4375ZM8.25 1.40625C8.89617 1.40625 9.42188 1.93195 9.42188 2.57812C9.42188 3.2243 8.89617 3.75 8.25 3.75C7.60383 3.75 7.07812 3.2243 7.07812 2.57812C7.07812 1.93195 7.60383 1.40625 8.25 1.40625ZM7.3125 5.15625H9.1875C10.3053 5.15625 11.2223 6.03038 11.2921 7.13086C10.2138 7.43934 9.42188 8.43328 9.42188 9.60938C9.42188 10.1228 9.57333 10.6012 9.83306 11.0036C9.19856 11.2412 8.65031 11.6569 8.25 12.1899C7.84964 11.6569 7.30144 11.2412 6.66694 11.0036C6.92667 10.6012 7.07812 10.1228 7.07812 9.60938C7.07812 8.43328 6.28622 7.43934 5.20791 7.13086C5.27766 6.03038 6.19467 5.15625 7.3125 5.15625ZM4.5 8.4375C5.14617 8.4375 5.67188 8.9632 5.67188 9.60938C5.67188 10.2555 5.14617 10.7812 4.5 10.7812C3.85383 10.7812 3.32812 10.2555 3.32812 9.60938C3.32812 8.9632 3.85383 8.4375 4.5 8.4375ZM1.45312 14.2969C1.45312 13.1338 2.39939 12.1875 3.5625 12.1875H5.4375C6.60061 12.1875 7.54688 13.1338 7.54688 14.2969V15.4688H1.45312V14.2969ZM22.5469 22.5938H1.45312V16.875H22.5469V22.5938ZM22.5469 15.4688H16.4531V14.2969C16.4531 13.1338 17.3994 12.1875 18.5625 12.1875H20.4375C21.6006 12.1875 22.5469 13.1338 22.5469 14.2969V15.4688Z" fill="#5E5E5E"/>
</g>
<defs>
<clipPath id="clip0_2097_1241">
<rect width="24" height="24" fill="white"/>
</clipPath>
</defs>
</svg>
