<svg width="34" height="44" viewBox="0 0 34 44" fill="none" xmlns="http://www.w3.org/2000/svg">
<path d="M28 0H6C2.96767 0 0.5 2.46767 0.5 5.5V44H13.3333V33H7.83333V29.3333H26.1667V33H20.6667V44H33.5V5.5C33.5 2.46767 31.0323 0 28 0ZM11.5 25.6667H7.83333V22H11.5V25.6667ZM11.5 18.3333H7.83333V14.6667H11.5V18.3333ZM11.5 11H7.83333V7.33333H11.5V11ZM18.8333 25.6667H15.1667V22H18.8333V25.6667ZM18.8333 18.3333H15.1667V14.6667H18.8333V18.3333ZM18.8333 11H15.1667V7.33333H18.8333V11ZM26.1667 25.6667H22.5V22H26.1667V25.6667ZM26.1667 18.3333H22.5V14.6667H26.1667V18.3333ZM26.1667 11H22.5V7.33333H26.1667V11Z" fill="#d3b74f"/>
</svg>
