<svg width="12" height="17" viewBox="0 0 12 17" fill="none" xmlns="http://www.w3.org/2000/svg">
<path d="M8.66667 0.5H3.33333C1.49533 0.5 0 1.99533 0 3.83333V13.1667C0 15.0047 1.49533 16.5 3.33333 16.5H4.66667C5.03467 16.5 5.33333 16.2013 5.33333 15.8333V12.5H6.66667V15.8333C6.66667 16.2013 6.96533 16.5 7.33333 16.5H8.66667C10.5047 16.5 12 15.0047 12 13.1667V3.83333C12 1.99533 10.5047 0.5 8.66667 0.5ZM10.6667 13.1667C10.6667 14.2693 9.76933 15.1667 8.66667 15.1667H8V12.5H8.66667C9.03467 12.5 9.33333 12.2013 9.33333 11.8333C9.33333 11.4653 9.03467 11.1667 8.66667 11.1667H3.33333C2.96533 11.1667 2.66667 11.4653 2.66667 11.8333C2.66667 12.2013 2.96533 12.5 3.33333 12.5H4V15.1667H3.33333C2.23067 15.1667 1.33333 14.2693 1.33333 13.1667V3.83333C1.33333 2.73067 2.23067 1.83333 3.33333 1.83333H8.66667C9.76933 1.83333 10.6667 2.73067 10.6667 3.83333V13.1667ZM5.33333 9.16667C5.33333 9.53467 5.03467 9.83333 4.66667 9.83333H4C3.632 9.83333 3.33333 9.53467 3.33333 9.16667C3.33333 8.79867 3.632 8.5 4 8.5H4.66667C5.03467 8.5 5.33333 8.79867 5.33333 9.16667ZM8.66667 9.16667C8.66667 9.53467 8.368 9.83333 8 9.83333H7.33333C6.96533 9.83333 6.66667 9.53467 6.66667 9.16667C6.66667 8.79867 6.96533 8.5 7.33333 8.5H8C8.368 8.5 8.66667 8.79867 8.66667 9.16667ZM5.33333 3.83333C5.33333 4.20133 5.03467 4.5 4.66667 4.5H4C3.632 4.5 3.33333 4.20133 3.33333 3.83333C3.33333 3.46533 3.632 3.16667 4 3.16667H4.66667C5.03467 3.16667 5.33333 3.46533 5.33333 3.83333ZM8.66667 3.83333C8.66667 4.20133 8.368 4.5 8 4.5H7.33333C6.96533 4.5 6.66667 4.20133 6.66667 3.83333C6.66667 3.46533 6.96533 3.16667 7.33333 3.16667H8C8.368 3.16667 8.66667 3.46533 8.66667 3.83333ZM5.33333 6.5C5.33333 6.868 5.03467 7.16667 4.66667 7.16667H4C3.632 7.16667 3.33333 6.868 3.33333 6.5C3.33333 6.132 3.632 5.83333 4 5.83333H4.66667C5.03467 5.83333 5.33333 6.132 5.33333 6.5ZM8.66667 6.5C8.66667 6.868 8.368 7.16667 8 7.16667H7.33333C6.96533 7.16667 6.66667 6.868 6.66667 6.5C6.66667 6.132 6.96533 5.83333 7.33333 5.83333H8C8.368 5.83333 8.66667 6.132 8.66667 6.5Z" fill="black" fill-opacity="0.3"/>
</svg>
