<svg width="32" height="32" viewBox="0 0 32 32" fill="none" xmlns="http://www.w3.org/2000/svg">
<path d="M3.06832 14.9492H28.9309C29.1834 14.9492 29.3567 14.6949 29.2643 14.4599L27.543 10.085C27.4893 9.94807 27.3571 9.858 27.2099 9.858H20.4341V6.54693L21.027 7.20111C21.1212 7.30463 21.2482 7.35639 21.3753 7.35639C21.4884 7.35639 21.6012 7.31405 21.6906 7.23403C21.8836 7.05992 21.9024 6.76344 21.7282 6.57048C17.7236 2.147 16.6412 0.951689 16.4059 0.688132H16.4013V0.683421L16.387 0.66929C16.3824 0.664579 16.3824 0.66458 16.3824 0.66458C16.3776 0.655159 16.3682 0.645795 16.3588 0.636374C16.3447 0.622243 16.3447 0.622243 16.3447 0.622243C16.2554 0.528148 16.1283 0.47168 15.9964 0.47168C15.8647 0.47168 15.7377 0.528148 15.6483 0.622243C15.6012 0.674 15.5729 0.706974 15.5589 0.725816C15.4458 0.848173 14.6412 1.73753 10.2742 6.57048C10.1 6.76344 10.114 7.05992 10.3071 7.23403C10.5047 7.40815 10.7965 7.39401 10.9707 7.20111L11.5635 6.54693V9.858H4.78959C4.64231 9.858 4.51018 9.94807 4.45618 10.085L2.73514 14.4599C2.64276 14.6949 2.81602 14.9492 3.06832 14.9492ZM16.0012 5.11638C16.8199 5.11638 17.4835 5.77993 17.4835 6.59875C17.4835 7.41757 16.8199 8.08105 16.0012 8.08105C15.1823 8.08105 14.5189 7.41757 14.5189 6.59875C14.5189 5.77993 15.1823 5.11638 16.0012 5.11638Z" fill="#d3b74f"/>
<path d="M30.3753 30.5874H28.5706V15.8882H3.42699V30.5874H1.62391C1.3638 30.5874 1.15332 30.7979 1.15332 31.058C1.15332 31.3181 1.3638 31.5286 1.62391 31.5286H30.3753C30.6354 31.5286 30.8459 31.3181 30.8459 31.058C30.8459 30.7979 30.6354 30.5874 30.3753 30.5874ZM10.702 26.45C10.702 26.6555 10.5354 26.8222 10.3298 26.8222H8.03475C7.8291 26.8222 7.66251 26.6555 7.66251 26.45V23.8489C7.66251 23.6433 7.8291 23.4766 8.03475 23.4766H10.3298C10.5354 23.4766 10.702 23.6433 10.702 23.8489V26.45ZM10.702 22.1632C10.702 22.3688 10.5354 22.5355 10.3298 22.5355H8.03475C7.8291 22.5355 7.66251 22.3688 7.66251 22.1632V19.5566C7.66251 19.351 7.8291 19.1844 8.03475 19.1844H10.3298C10.5354 19.1844 10.702 19.351 10.702 19.5566V22.1632ZM14.6827 26.45C14.6827 26.6555 14.5161 26.8222 14.3105 26.8222H12.0155C11.8098 26.8222 11.6432 26.6555 11.6432 26.45V23.8489C11.6432 23.6433 11.8098 23.4766 12.0155 23.4766H14.3105C14.5161 23.4766 14.6827 23.6433 14.6827 23.8489V26.45ZM14.6827 22.1632C14.6827 22.3688 14.5161 22.5355 14.3105 22.5355H12.0155C11.8098 22.5355 11.6432 22.3688 11.6432 22.1632V19.5566C11.6432 19.351 11.8098 19.1844 12.0155 19.1844H14.3105C14.5161 19.1844 14.6827 19.351 14.6827 19.5566V22.1632ZM25.5899 30.5874H19.117V23.0496C19.117 21.2627 20.5642 19.811 22.3512 19.811C24.0929 19.811 25.5899 21.2238 25.5899 23.0496V30.5874Z" fill="#d3b74f"/>
<path d="M24.1541 26.114H23.3407C23.0806 26.114 22.8701 26.3245 22.8701 26.5846C22.8701 26.8447 23.0806 27.0552 23.3407 27.0552H24.1541C24.4142 27.0552 24.6247 26.8447 24.6247 26.5846C24.6247 26.3245 24.4142 26.114 24.1541 26.114Z" fill="#d3b74f"/>
</svg>
