<svg width="32" height="32" viewBox="0 0 32 32" fill="none" xmlns="http://www.w3.org/2000/svg">
<path d="M11 21C12.1046 21 13 20.1046 13 19C13 17.8954 12.1046 17 11 17C9.89543 17 9 17.8954 9 19C9 20.1046 9.89543 21 11 21Z" fill="#d3b74f"/>
<path d="M20 6V3C20 1.9 19.1 1 18 1H14C12.9 1 12 1.9 12 3V6H11V10C11 10.55 11.45 11 12 11H20C20.55 11 21 10.55 21 10V6H20ZM18 7H14V3H18V7Z" fill="#d3b74f"/>
<path d="M28 6H23V10C23 11.65 21.65 13 20 13H12C10.35 13 9 11.65 9 10V6H4C2.35 6 1 7.35 1 9V28C1 29.65 2.35 31 4 31H28C29.65 31 31 29.65 31 28V9C31 7.35 29.65 6 28 6ZM16.49 26.87C16.0246 27.1221 15.3984 26.982 15.13 26.49C14.27 24.95 12.69 24 11 24C9.31 24 7.73 24.95 6.87 26.49C6.61 26.97 6 27.14 5.51 26.87C5.03 26.61 4.86 26 5.13 25.51C5.97 24.01 7.32 22.91 8.87 22.37C7.75 21.66 7 20.42 7 19C7 16.79 8.79 15 11 15C13.21 15 15 16.79 15 19C15 20.42 14.25 21.66 13.13 22.37C14.68 22.91 16.03 24.01 16.87 25.51C17.14 26 16.97 26.61 16.49 26.87ZM26 26H21C20.45 26 20 25.55 20 25C20 24.45 20.45 24 21 24H26C26.55 24 27 24.45 27 25C27 25.55 26.55 26 26 26ZM26 22H20C19.45 22 19 21.55 19 21C19 20.45 19.45 20 20 20H26C26.55 20 27 20.45 27 21C27 21.55 26.55 22 26 22ZM26 18H19C18.45 18 18 17.55 18 17C18 16.45 18.45 16 19 16H26C26.55 16 27 16.45 27 17C27 17.55 26.55 18 26 18Z" fill="#d3b74f"/>
</svg>
