<svg width="32" height="32" viewBox="0 0 32 32" fill="none" xmlns="http://www.w3.org/2000/svg">
<path d="M27.548 0H4.45215C3.9344 0 3.51465 0.41975 3.51465 0.9375V25.0375V31.0625C3.51465 31.5802 3.9344 32 4.45215 32H27.548C28.0657 32 28.4855 31.5802 28.4855 31.0625V25.0375V0.9375C28.4855 0.41975 28.0658 0 27.548 0ZM26.6105 24.1H22.8993C22.44 20.7027 19.5214 18.075 16.0001 18.075C12.4789 18.075 9.56027 20.7027 9.10096 24.1H5.38965V1.875H26.6105V24.1Z" fill="#8A027D"/>
<path d="M15.9999 6.0249C13.8217 6.0249 12.0498 7.7969 12.0498 9.9749C12.0498 12.1529 13.8217 13.9249 15.9999 13.9249C18.1779 13.9249 19.9498 12.1529 19.9498 9.9749C19.9498 7.7969 18.1779 6.0249 15.9999 6.0249Z" fill="#8A027D"/>
</svg>
