<svg width="8" height="15" viewBox="0 0 8 15" fill="none" xmlns="http://www.w3.org/2000/svg">
<path d="M1.59995 5.38006L6.18995 0.79006C6.37732 0.603809 6.63077 0.499268 6.89495 0.499268C7.15914 0.499268 7.41259 0.603809 7.59995 0.79006C7.69368 0.883023 7.76808 0.993624 7.81884 1.11548C7.86961 1.23734 7.89575 1.36805 7.89575 1.50006C7.89575 1.63207 7.86961 1.76278 7.81884 1.88464C7.76808 2.0065 7.69368 2.1171 7.59995 2.21006L2.99995 6.79006C2.90622 6.88302 2.83183 6.99362 2.78106 7.11548C2.73029 7.23734 2.70415 7.36805 2.70415 7.50006C2.70415 7.63207 2.73029 7.76278 2.78106 7.88464C2.83183 8.0065 2.90622 8.1171 2.99995 8.21006L7.59995 12.7901C7.78826 12.977 7.89457 13.2312 7.89551 13.4965C7.89645 13.7619 7.79193 14.0168 7.60495 14.2051C7.41798 14.3934 7.16385 14.4997 6.89849 14.5006C6.63313 14.5016 6.37826 14.397 6.18995 14.2101L1.59995 9.62006C1.03815 9.05756 0.722592 8.29506 0.722592 7.50006C0.722592 6.70506 1.03815 5.94256 1.59995 5.38006Z" fill="#5E5E5E"/>
</svg>
