<svg width="16" height="17" viewBox="0 0 16 17" fill="none" xmlns="http://www.w3.org/2000/svg">
<g clip-path="url(#clip0_2756_8337)">
<path d="M7.99968 4.5C7.47226 4.5 6.95669 4.6564 6.51816 4.94941C6.07962 5.24243 5.73783 5.65891 5.536 6.14618C5.33416 6.63345 5.28135 7.16962 5.38425 7.68691C5.48714 8.20419 5.74112 8.67935 6.11406 9.05229C6.487 9.42523 6.96215 9.6792 7.47944 9.78209C7.99672 9.88499 8.5329 9.83218 9.02017 9.63035C9.50744 9.42851 9.92391 9.08672 10.2169 8.64819C10.5099 8.20966 10.6663 7.69408 10.6663 7.16667C10.6663 6.45942 10.3854 5.78115 9.88529 5.28105C9.3852 4.78095 8.70692 4.5 7.99968 4.5ZM7.99968 8.5C7.73597 8.5 7.47818 8.4218 7.25892 8.27529C7.03965 8.12878 6.86875 7.92055 6.76784 7.67691C6.66692 7.43328 6.64052 7.16519 6.69196 6.90655C6.74341 6.64791 6.8704 6.41033 7.05687 6.22386C7.24334 6.03739 7.48091 5.9104 7.73956 5.85895C7.9982 5.80751 8.26629 5.83391 8.50992 5.93483C8.75356 6.03574 8.96179 6.20664 9.1083 6.42591C9.25481 6.64517 9.33301 6.90296 9.33301 7.16667C9.33301 7.52029 9.19253 7.85943 8.94248 8.10948C8.69244 8.35952 8.3533 8.5 7.99968 8.5Z" fill="black" fill-opacity="0.3"/>
<path d="M8.00021 16.5001C7.43884 16.503 6.88495 16.3713 6.38492 16.1161C5.88489 15.861 5.45327 15.4897 5.12621 15.0334C2.58554 11.5288 1.29688 8.89411 1.29688 7.20211C1.29688 5.42428 2.00312 3.71926 3.26024 2.46214C4.51735 1.20502 6.22237 0.498779 8.00021 0.498779C9.77804 0.498779 11.4831 1.20502 12.7402 2.46214C13.9973 3.71926 14.7035 5.42428 14.7035 7.20211C14.7035 8.89411 13.4149 11.5288 10.8742 15.0334C10.5471 15.4897 10.1155 15.861 9.6155 16.1161C9.11547 16.3713 8.56158 16.503 8.00021 16.5001ZM8.00021 1.95411C6.60849 1.9557 5.27422 2.50926 4.29012 3.49336C3.30603 4.47746 2.75246 5.81172 2.75087 7.20345C2.75087 8.54345 4.01287 11.0214 6.30354 14.1808C6.498 14.4486 6.75312 14.6666 7.04802 14.817C7.34291 14.9673 7.66921 15.0456 8.00021 15.0456C8.33121 15.0456 8.6575 14.9673 8.9524 14.817C9.2473 14.6666 9.50241 14.4486 9.69688 14.1808C11.9875 11.0214 13.2495 8.54345 13.2495 7.20345C13.248 5.81172 12.6944 4.47746 11.7103 3.49336C10.7262 2.50926 9.39193 1.9557 8.00021 1.95411Z" fill="black" fill-opacity="0.3"/>
</g>
<defs>
<clipPath id="clip0_2756_8337">
<rect width="16" height="16" fill="white" transform="translate(0 0.5)"/>
</clipPath>
</defs>
</svg>
