<svg width="40" height="40" viewBox="0 0 40 40" fill="none" xmlns="http://www.w3.org/2000/svg">
<g clip-path="url(#clip0_2556_2492)">
<path d="M24.6094 4.77586H14.051V3.51562C14.051 2.86906 14.5763 2.34375 15.2229 2.34375H23.3791C24.0269 2.34375 24.5979 1.81961 24.5979 1.17188C24.5979 0.524141 24.0269 0 23.3791 0H15.176C13.2374 0 11.7229 1.57703 11.7229 3.51562V4.76023H3.51562C1.57703 4.76023 0 6.33727 0 8.27586C0 9.8175 1.00383 11.116 2.38711 11.5891L5.55266 36.9216C5.77352 38.6759 7.27383 40 9.05344 40L11.9091 39.9877C10.9816 39.0948 10.2563 37.9691 9.8282 36.703C8.18461 35.713 7.09375 33.8715 7.09375 31.7134C7.09375 29.6184 8.12367 27.7957 9.73781 26.7798C10.9051 22.1609 15.0719 18.8227 19.9219 18.8227H24.7168L25.6165 11.6269C27.0623 11.1905 28.125 9.86211 28.125 8.27586C28.125 6.33727 26.548 4.77586 24.6094 4.77586ZM24.6094 9.44773H3.51562C2.86906 9.44773 2.40625 8.9068 2.40625 8.26023C2.40625 7.61367 2.86906 7.08836 3.51562 7.08836H24.6094C25.2559 7.08836 25.7969 7.61367 25.7969 8.26023C25.7969 8.9068 25.2559 9.44773 24.6094 9.44773Z" fill="#d3b74f"/>
<path d="M37.5562 28.3648C37.0609 24.3123 33.6371 21.1665 29.4531 21.1665H19.9219C15.7379 21.1665 12.3141 24.3121 11.8187 28.3646C10.2677 28.8613 9.375 30.2416 9.375 31.6978C9.375 33.1535 10.2662 34.5334 11.8189 35.0307C12.2924 37.7897 14.6862 39.9844 17.5781 39.9844H31.7969C34.6888 39.9844 37.0826 37.7897 37.5561 35.0308C39.1048 34.5349 40 33.1564 40 31.6978C40 30.2423 39.1091 28.8621 37.5562 28.3648ZM36.4844 32.8696H12.8906C12.2453 32.8696 11.7813 32.3493 11.7813 31.6978C11.7813 31.0524 12.2391 30.5259 12.8906 30.5259H36.4844C37.1297 30.5259 37.6719 31.0462 37.6719 31.6978C37.6719 32.3431 37.1359 32.8696 36.4844 32.8696Z" fill="#d3b74f"/>
</g>
<defs>
<clipPath id="clip0_2556_2492">
<rect width="40" height="40" fill="white"/>
</clipPath>
</defs>
</svg>
