<svg width="138" height="138" viewBox="0 0 138 138" fill="none" xmlns="http://www.w3.org/2000/svg">
<g clip-path="url(#clip0_2756_2750)">
<path d="M138 138H0V0H138V138Z" fill="white"/>
<path d="M15.0408 77.0312C16.7658 75.3062 19.1056 74.3368 21.5454 74.3368C23.3784 74.3368 25.1545 74.884 26.6562 75.8876L20.1078 69.3391C18.3828 67.6141 17.4134 65.2743 17.4134 62.8345C17.4134 60.3946 18.3825 58.0549 20.1078 56.3299C21.8328 54.6049 24.1726 53.6354 26.6124 53.6354C28.4451 53.6354 30.2215 54.1826 31.7233 55.1858L28.2864 51.7489C26.5614 50.0239 25.5919 47.6842 25.5919 45.2443C25.5919 42.8045 26.561 40.4647 28.2864 38.7397C30.0114 37.0147 32.3512 36.0452 34.791 36.0452C36.6236 36.0452 38.4 36.5924 39.9018 37.5957L39.0621 36.7559C37.3371 35.0309 36.3676 32.6911 36.3676 30.2513C36.3676 27.8115 37.3368 25.4717 39.0621 23.7467C40.7871 22.0217 43.1269 21.0522 45.5667 21.0522C48.0066 21.0522 50.3464 22.0213 52.0714 23.7467L60.7888 32.4645C59.7852 30.9627 59.2384 29.1863 59.2384 27.3537C59.2384 24.9138 60.2075 22.574 61.9328 20.849C63.6578 19.124 65.9976 18.1546 68.4375 18.1546C70.8773 18.1546 73.2171 19.1237 74.9421 20.849L88.187 34.0939C87.1834 32.5921 86.6366 30.8157 86.6366 28.9831C86.6366 26.5433 87.6057 24.2035 89.331 22.4785C91.056 20.7535 93.3958 19.784 95.8356 19.784C98.2755 19.784 100.615 20.7531 102.34 22.4785L122.96 43.0981C124.685 44.8231 125.654 47.1629 125.654 49.6027C125.654 52.0425 124.685 54.3823 122.96 56.1073C121.235 57.8323 118.895 58.8018 116.455 58.8018C114.623 58.8018 112.846 58.2546 111.344 57.2514L115.661 61.5676C117.386 63.2927 118.355 65.6324 118.355 68.0723C118.355 70.5121 117.386 72.8519 115.661 74.5769C113.936 76.3019 111.596 77.2714 109.156 77.2714C107.323 77.2714 105.547 76.7242 104.045 75.7209L112.762 84.438C114.487 86.163 115.457 88.5028 115.457 90.9427C115.457 93.3825 114.488 95.7223 112.762 97.4473C111.037 99.1723 108.698 100.142 106.258 100.142C104.425 100.142 102.649 99.5946 101.147 98.5913L106.698 104.143C108.423 105.868 109.393 108.208 109.393 110.647C109.393 113.087 108.424 115.427 106.698 117.152C104.973 118.877 102.634 119.846 100.194 119.846C97.7538 119.846 95.4141 118.877 93.6891 117.152L81.3236 104.786C82.3272 106.288 82.874 108.065 82.874 109.897C82.874 112.337 81.9049 114.677 80.1795 116.402C78.4545 118.127 76.1148 119.096 73.6749 119.096C71.2351 119.096 68.8953 118.127 67.1703 116.402L49.8137 99.0453C50.8173 100.547 51.3645 102.324 51.3645 104.157C51.3645 106.596 50.3953 108.936 48.67 110.661C46.945 112.386 44.6052 113.356 42.1654 113.356C39.7255 113.356 37.3857 112.387 35.6607 110.661L15.0411 90.0415C13.3161 88.3165 12.3467 85.9767 12.3467 83.5369C12.3467 81.0971 13.3154 78.7562 15.0408 77.0312Z" fill="white"/>
<path d="M125.382 37.8217L124.746 37.1852C124.497 36.9364 124.497 36.5331 124.746 36.2844C124.995 36.0356 125.398 36.0356 125.647 36.2844L126.283 36.9209L126.92 36.2844C127.168 36.0356 127.572 36.0356 127.82 36.2844C128.069 36.5331 128.069 36.9364 127.82 37.1852L127.184 37.8217L127.82 38.4582C128.069 38.707 128.069 39.1103 127.82 39.359C127.696 39.4836 127.533 39.5457 127.37 39.5457C127.207 39.5457 127.044 39.4836 126.919 39.359L126.283 38.7225L125.646 39.359C125.522 39.4836 125.359 39.5457 125.196 39.5457C125.033 39.5457 124.87 39.4836 124.745 39.359C124.496 39.1103 124.496 38.707 124.745 38.4582L125.382 37.8217Z" fill="white"/>
<path d="M34.4322 24.1083L33.7956 23.4718C33.5469 23.223 33.5469 22.8197 33.7956 22.571C34.0444 22.3222 34.4477 22.3222 34.6964 22.571L35.333 23.2075L35.9695 22.571C36.2182 22.3222 36.6215 22.3222 36.8703 22.571C37.119 22.8197 37.119 23.223 36.8703 23.4718L36.2338 24.1083L36.8703 24.7448C37.119 24.9936 37.119 25.3969 36.8703 25.6456C36.7457 25.7702 36.5829 25.8323 36.4197 25.8323C36.2565 25.8323 36.0937 25.7702 35.9691 25.6456L35.3326 25.0091L34.6961 25.6456C34.5716 25.7702 34.4087 25.8323 34.2455 25.8323C34.0823 25.8323 33.9195 25.7702 33.795 25.6456C33.5462 25.3969 33.5462 24.9936 33.795 24.7448L34.4322 24.1083Z" fill="white"/>
<path d="M18.146 80.5275L17.5095 79.891C17.2608 79.6422 17.2608 79.2389 17.5095 78.9902C17.7583 78.7414 18.1616 78.7414 18.4103 78.9902L19.0468 79.6267L19.6834 78.9902C19.9321 78.7414 20.3354 78.7414 20.5842 78.9902C20.8329 79.2389 20.8329 79.6422 20.5842 79.891L19.9476 80.5275L20.5842 81.164C20.8329 81.4128 20.8329 81.8161 20.5842 82.0648C20.4596 82.1894 20.2968 82.2515 20.1336 82.2515C19.9704 82.2515 19.8076 82.1894 19.683 82.0648L19.0465 81.4283L18.41 82.0648C18.2854 82.1894 18.1226 82.2515 17.9594 82.2515C17.7962 82.2515 17.6334 82.1894 17.5088 82.0648C17.2601 81.8161 17.2601 81.4128 17.5088 81.164L18.146 80.5275Z" fill="white"/>
<path d="M94.7564 113.239L94.1199 112.603C93.8711 112.354 93.8711 111.951 94.1199 111.702C94.3686 111.453 94.7719 111.453 95.0207 111.702L95.6572 112.339L96.2937 111.702C96.5425 111.453 96.9458 111.453 97.1945 111.702C97.4432 111.951 97.4432 112.354 97.1945 112.603L96.558 113.239L97.1945 113.876C97.4432 114.125 97.4432 114.528 97.1945 114.777C97.07 114.901 96.9071 114.963 96.7439 114.963C96.5807 114.963 96.4179 114.901 96.2934 114.777L95.6568 114.14L95.0203 114.777C94.8958 114.901 94.7329 114.963 94.5697 114.963C94.4066 114.963 94.2437 114.901 94.1192 114.777C93.8704 114.528 93.8704 114.125 94.1192 113.876L94.7564 113.239Z" fill="white"/>
<path d="M83.1021 23.2209C84.1282 23.2209 84.9631 22.386 84.9631 21.36C84.9631 20.334 84.1282 19.4991 83.1021 19.4991C82.0761 19.4991 81.2412 20.334 81.2412 21.36C81.2412 22.386 82.0758 23.2209 83.1021 23.2209ZM83.1021 20.7732C83.4257 20.7732 83.689 21.0364 83.689 21.36C83.689 21.6836 83.4257 21.9469 83.1021 21.9469C82.7785 21.9469 82.5153 21.6836 82.5153 21.36C82.5153 21.0364 82.7785 20.7732 83.1021 20.7732Z" fill="white"/>
<path d="M118.175 82.5186C119.201 82.5186 120.036 81.6837 120.036 80.6576C120.036 79.6316 119.201 78.7967 118.175 78.7967C117.149 78.7967 116.314 79.6316 116.314 80.6576C116.314 81.6837 117.149 82.5186 118.175 82.5186ZM118.175 80.0708C118.499 80.0708 118.762 80.334 118.762 80.6576C118.762 80.9812 118.499 81.2445 118.175 81.2445C117.852 81.2445 117.589 80.9812 117.589 80.6576C117.589 80.334 117.852 80.0708 118.175 80.0708Z" fill="white"/>
<path d="M40.2721 112.385C41.2981 112.385 42.133 111.55 42.133 110.524C42.133 109.498 41.2981 108.663 40.2721 108.663C39.246 108.663 38.4111 109.498 38.4111 110.524C38.4111 111.55 39.246 112.385 40.2721 112.385ZM40.2721 109.937C40.5957 109.937 40.8589 110.2 40.8589 110.524C40.8589 110.847 40.5957 111.111 40.2721 111.111C39.9485 111.111 39.6852 110.847 39.6852 110.524C39.6852 110.2 39.9485 109.937 40.2721 109.937Z" fill="white"/>
<path d="M18.5934 54.2815C19.6194 54.2815 20.4543 53.4466 20.4543 52.4206C20.4543 51.3945 19.6194 50.5596 18.5934 50.5596C17.5673 50.5596 16.7324 51.3945 16.7324 52.4206C16.7324 53.4466 17.567 54.2815 18.5934 54.2815ZM18.5934 51.8337C18.917 51.8337 19.1802 52.097 19.1802 52.4206C19.1802 52.7442 18.917 53.0074 18.5934 53.0074C18.2697 53.0074 18.0065 52.7442 18.0065 52.4206C18.0065 52.097 18.2697 51.8337 18.5934 51.8337Z" fill="white"/>
<path d="M15.0408 77.0312C16.7658 75.3062 19.1056 74.3368 21.5454 74.3368C23.3784 74.3368 25.1545 74.884 26.6562 75.8876L20.1078 69.3391C18.3828 67.6141 17.4134 65.2743 17.4134 62.8345C17.4134 60.3946 18.3825 58.0549 20.1078 56.3299C21.8328 54.6049 24.1726 53.6354 26.6124 53.6354C28.4451 53.6354 30.2215 54.1826 31.7233 55.1858L28.2864 51.7489C26.5614 50.0239 25.5919 47.6842 25.5919 45.2443C25.5919 42.8045 26.561 40.4647 28.2864 38.7397C30.0114 37.0147 32.3512 36.0452 34.791 36.0452C36.6236 36.0452 38.4 36.5924 39.9018 37.5957L39.0621 36.7559C37.3371 35.0309 36.3676 32.6911 36.3676 30.2513C36.3676 27.8115 37.3368 25.4717 39.0621 23.7467C40.7871 22.0217 43.1269 21.0522 45.5667 21.0522C48.0066 21.0522 50.3464 22.0213 52.0714 23.7467L60.7888 32.4645C59.7852 30.9627 59.2384 29.1863 59.2384 27.3537C59.2384 24.9138 60.2075 22.574 61.9328 20.849C63.6578 19.124 65.9976 18.1546 68.4375 18.1546C70.8773 18.1546 73.2171 19.1237 74.9421 20.849L88.187 34.0939C87.1834 32.5921 86.6366 30.8157 86.6366 28.9831C86.6366 26.5433 87.6057 24.2035 89.331 22.4785C91.056 20.7535 93.3958 19.784 95.8356 19.784C98.2755 19.784 100.615 20.7531 102.34 22.4785L122.96 43.0981C124.685 44.8231 125.654 47.1629 125.654 49.6027C125.654 52.0425 124.685 54.3823 122.96 56.1073C121.235 57.8323 118.895 58.8018 116.455 58.8018C114.623 58.8018 112.846 58.2546 111.344 57.2514L115.661 61.5676C117.386 63.2927 118.355 65.6324 118.355 68.0723C118.355 70.5121 117.386 72.8519 115.661 74.5769C113.936 76.3019 111.596 77.2714 109.156 77.2714C107.323 77.2714 105.547 76.7242 104.045 75.7209L112.762 84.438C114.487 86.163 115.457 88.5028 115.457 90.9427C115.457 93.3825 114.488 95.7223 112.762 97.4473C111.037 99.1723 108.698 100.142 106.258 100.142C104.425 100.142 102.649 99.5946 101.147 98.5913L106.698 104.143C108.423 105.868 109.393 108.208 109.393 110.647C109.393 113.087 108.424 115.427 106.698 117.152C104.973 118.877 102.634 119.846 100.194 119.846C97.7538 119.846 95.4141 118.877 93.6891 117.152L81.3236 104.786C82.3272 106.288 82.874 108.065 82.874 109.897C82.874 112.337 81.9049 114.677 80.1795 116.402C78.4545 118.127 76.1148 119.096 73.6749 119.096C71.2351 119.096 68.8953 118.127 67.1703 116.402L49.8137 99.0453C50.8173 100.547 51.3645 102.324 51.3645 104.157C51.3645 106.596 50.3953 108.936 48.67 110.661C46.945 112.386 44.6052 113.356 42.1654 113.356C39.7255 113.356 37.3857 112.387 35.6607 110.661L15.0411 90.0415C13.3161 88.3165 12.3467 85.9767 12.3467 83.5369C12.3467 81.0971 13.3154 78.7562 15.0408 77.0312Z" fill="#E6E6E6"/>
<path d="M125.382 37.8217L124.746 37.1852C124.497 36.9364 124.497 36.5331 124.746 36.2844C124.995 36.0356 125.398 36.0356 125.647 36.2844L126.283 36.9209L126.92 36.2844C127.168 36.0356 127.572 36.0356 127.82 36.2844C128.069 36.5331 128.069 36.9364 127.82 37.1852L127.184 37.8217L127.82 38.4582C128.069 38.707 128.069 39.1103 127.82 39.359C127.696 39.4836 127.533 39.5457 127.37 39.5457C127.207 39.5457 127.044 39.4836 126.919 39.359L126.283 38.7225L125.646 39.359C125.522 39.4836 125.359 39.5457 125.196 39.5457C125.033 39.5457 124.87 39.4836 124.745 39.359C124.496 39.1103 124.496 38.707 124.745 38.4582L125.382 37.8217Z" fill="#8A027D"/>
<path d="M34.4322 24.1083L33.7956 23.4718C33.5469 23.223 33.5469 22.8197 33.7956 22.571C34.0444 22.3222 34.4477 22.3222 34.6964 22.571L35.333 23.2075L35.9695 22.571C36.2182 22.3222 36.6215 22.3222 36.8703 22.571C37.119 22.8197 37.119 23.223 36.8703 23.4718L36.2338 24.1083L36.8703 24.7448C37.119 24.9936 37.119 25.3969 36.8703 25.6456C36.7457 25.7702 36.5829 25.8323 36.4197 25.8323C36.2565 25.8323 36.0937 25.7702 35.9691 25.6456L35.3326 25.0091L34.6961 25.6456C34.5716 25.7702 34.4087 25.8323 34.2455 25.8323C34.0823 25.8323 33.9195 25.7702 33.795 25.6456C33.5462 25.3969 33.5462 24.9936 33.795 24.7448L34.4322 24.1083Z" fill="#8A027D"/>
<path d="M18.146 80.5275L17.5095 79.891C17.2608 79.6422 17.2608 79.2389 17.5095 78.9902C17.7583 78.7414 18.1616 78.7414 18.4103 78.9902L19.0468 79.6267L19.6834 78.9902C19.9321 78.7414 20.3354 78.7414 20.5842 78.9902C20.8329 79.2389 20.8329 79.6422 20.5842 79.891L19.9476 80.5275L20.5842 81.164C20.8329 81.4128 20.8329 81.8161 20.5842 82.0648C20.4596 82.1894 20.2968 82.2515 20.1336 82.2515C19.9704 82.2515 19.8076 82.1894 19.683 82.0648L19.0465 81.4283L18.41 82.0648C18.2854 82.1894 18.1226 82.2515 17.9594 82.2515C17.7962 82.2515 17.6334 82.1894 17.5088 82.0648C17.2601 81.8161 17.2601 81.4128 17.5088 81.164L18.146 80.5275Z" fill="#8A027D"/>
<path d="M94.7564 113.239L94.1199 112.603C93.8711 112.354 93.8711 111.951 94.1199 111.702C94.3686 111.453 94.7719 111.453 95.0207 111.702L95.6572 112.339L96.2937 111.702C96.5425 111.453 96.9458 111.453 97.1945 111.702C97.4432 111.951 97.4432 112.354 97.1945 112.603L96.558 113.239L97.1945 113.876C97.4432 114.125 97.4432 114.528 97.1945 114.777C97.07 114.901 96.9071 114.963 96.7439 114.963C96.5807 114.963 96.4179 114.901 96.2934 114.777L95.6568 114.14L95.0203 114.777C94.8958 114.901 94.7329 114.963 94.5697 114.963C94.4066 114.963 94.2437 114.901 94.1192 114.777C93.8704 114.528 93.8704 114.125 94.1192 113.876L94.7564 113.239Z" fill="#8A027D"/>
<path d="M83.1021 23.2209C84.1282 23.2209 84.9631 22.386 84.9631 21.36C84.9631 20.334 84.1282 19.4991 83.1021 19.4991C82.0761 19.4991 81.2412 20.334 81.2412 21.36C81.2412 22.386 82.0758 23.2209 83.1021 23.2209ZM83.1021 20.7732C83.4257 20.7732 83.689 21.0364 83.689 21.36C83.689 21.6836 83.4257 21.9469 83.1021 21.9469C82.7785 21.9469 82.5153 21.6836 82.5153 21.36C82.5153 21.0364 82.7785 20.7732 83.1021 20.7732Z" fill="#8A027D"/>
<path d="M118.175 82.5186C119.201 82.5186 120.036 81.6837 120.036 80.6576C120.036 79.6316 119.201 78.7967 118.175 78.7967C117.149 78.7967 116.314 79.6316 116.314 80.6576C116.314 81.6837 117.149 82.5186 118.175 82.5186ZM118.175 80.0708C118.499 80.0708 118.762 80.334 118.762 80.6576C118.762 80.9812 118.499 81.2445 118.175 81.2445C117.852 81.2445 117.589 80.9812 117.589 80.6576C117.589 80.334 117.852 80.0708 118.175 80.0708Z" fill="#8A027D"/>
<path d="M40.2721 112.385C41.2981 112.385 42.133 111.55 42.133 110.524C42.133 109.498 41.2981 108.663 40.2721 108.663C39.246 108.663 38.4111 109.498 38.4111 110.524C38.4111 111.55 39.246 112.385 40.2721 112.385ZM40.2721 109.937C40.5957 109.937 40.8589 110.2 40.8589 110.524C40.8589 110.847 40.5957 111.111 40.2721 111.111C39.9485 111.111 39.6852 110.847 39.6852 110.524C39.6852 110.2 39.9485 109.937 40.2721 109.937Z" fill="#8A027D"/>
<path d="M18.5934 54.2815C19.6194 54.2815 20.4543 53.4466 20.4543 52.4206C20.4543 51.3945 19.6194 50.5596 18.5934 50.5596C17.5673 50.5596 16.7324 51.3945 16.7324 52.4206C16.7324 53.4466 17.567 54.2815 18.5934 54.2815ZM18.5934 51.8337C18.917 51.8337 19.1802 52.097 19.1802 52.4206C19.1802 52.7442 18.917 53.0074 18.5934 53.0074C18.2697 53.0074 18.0065 52.7442 18.0065 52.4206C18.0065 52.097 18.2697 51.8337 18.5934 51.8337Z" fill="#8A027D"/>
<g clip-path="url(#clip1_2756_2750)">
<path d="M107.353 50.3651H112.344C112.512 50.3651 112.689 50.2924 112.808 50.1742C112.927 50.0561 113.007 49.8757 113 49.7133C112.984 49.3606 112.712 49.062 112.345 49.062H107.353C107.185 49.062 107.009 49.1348 106.89 49.2529C106.776 49.3658 106.691 49.5515 106.698 49.7139C106.713 50.0666 106.986 50.3651 107.353 50.3651Z" fill="#8A027D"/>
<path d="M106.323 45.2264C106.811 44.9465 107.299 44.666 107.787 44.386C108.564 43.9402 109.34 43.4944 110.117 43.0486C110.294 42.9473 110.471 42.8454 110.648 42.7442C110.79 42.6627 110.905 42.512 110.948 42.3548C110.992 42.1988 110.972 41.9911 110.882 41.8525C110.689 41.5545 110.303 41.4364 109.986 41.6186C109.497 41.8985 109.009 42.179 108.522 42.459C107.745 42.9048 106.968 43.3506 106.191 43.7964C106.014 43.8977 105.838 43.9996 105.661 44.1008C105.519 44.1823 105.403 44.333 105.36 44.4902C105.317 44.6462 105.336 44.8539 105.426 44.9925C105.619 45.2904 106.005 45.4086 106.323 45.2264Z" fill="#8A027D"/>
<path d="M102.84 41.2968C103.121 40.8114 103.403 40.3266 103.685 39.8412C104.133 39.0689 104.582 38.2966 105.03 37.5243C105.132 37.3485 105.234 37.1727 105.336 36.997C105.422 36.8503 105.448 36.6588 105.402 36.4947C105.36 36.3434 105.243 36.1798 105.102 36.1053C104.789 35.9412 104.388 36.0239 104.205 36.3393C103.923 36.8247 103.641 37.3095 103.359 37.7949C102.911 38.5672 102.463 39.3396 102.014 40.1119C101.912 40.2876 101.81 40.4634 101.708 40.6392C101.623 40.7858 101.597 40.9773 101.642 41.1414C101.684 41.2928 101.801 41.4563 101.943 41.5308C102.255 41.6949 102.656 41.6123 102.84 41.2968Z" fill="#8A027D"/>
<path d="M97.8507 39.6148V34.652C97.8507 34.485 97.7775 34.3092 97.6587 34.1911C97.5451 34.0781 97.3584 33.9932 97.1951 34.0002C96.8403 34.0159 96.54 34.2865 96.54 34.6514V39.6142C96.54 39.7812 96.6132 39.957 96.732 40.0751C96.8456 40.1881 97.0323 40.273 97.1957 40.266C97.5504 40.2503 97.8507 39.9797 97.8507 39.6148Z" fill="#8A027D"/>
<g style="mix-blend-mode:multiply">
<path d="M88.7825 89.236H57.5528L46.272 96.0001L43.3932 89.236H40.9902C34.3679 89.236 29 83.899 29 77.3148V59.7638C29 53.4531 33.9464 48.236 40.2825 47.8635L90.0896 44.9366C97.4443 44.5042 103.447 50.7072 102.73 57.9974L100.716 78.4753C100.115 84.5806 94.9529 89.236 88.7831 89.236H88.7825Z" fill="#E6E6E6"/>
</g>
<path d="M89.7669 87.4423H58.5372L47.2564 94.2064L44.3776 87.4423H41.9746C35.3528 87.4423 29.9844 82.1053 29.9844 75.5211V57.9701C29.9844 51.6594 34.9308 46.4423 41.2669 46.0698L91.074 43.1429C98.4286 42.7105 104.432 48.9135 103.715 56.2037L101.7 76.6816C101.1 82.7869 95.9373 87.4423 89.7674 87.4423H89.7669Z" fill="url(#paint0_linear_2756_2750)"/>
<path d="M88.9612 55.8496H44.0209C40.2038 55.8496 37.1094 58.9262 37.1094 62.7214C37.1094 66.5165 40.2038 69.5931 44.0209 69.5931H88.9612C92.7783 69.5931 95.8727 66.5165 95.8727 62.7214C95.8727 58.9262 92.7783 55.8496 88.9612 55.8496Z" fill="white"/>
<g style="mix-blend-mode:multiply">
<path d="M93.4473 57.4934C90.1429 57.1424 86.7255 56.9579 83.2267 56.9579C65.6339 56.9579 50.0834 61.6152 40.6864 68.7412C38.5545 67.5708 37.1104 65.3138 37.1104 62.721C37.1104 60.823 37.8836 59.1055 39.1346 57.8618C40.3855 56.618 42.113 55.8486 44.0219 55.8486H88.9628C90.6744 55.8486 92.2409 56.4673 93.4485 57.4928L93.4473 57.4934Z" fill="#F2F2F2"/>
</g>
<path d="M63.5905 62.9548C63.5905 63.4215 63.1988 63.7719 62.7294 63.7329L61.4773 63.6549L62.2991 64.589C62.6123 64.9394 62.5731 65.4452 62.2207 65.7566C61.9075 66.0679 61.3596 66.0289 61.0856 65.6786L60.2246 64.7444L60.1461 65.9894C60.1461 66.4561 59.7545 66.8065 59.285 66.7675C58.8156 66.7675 58.4632 66.3781 58.5024 65.9114L58.5808 64.6665L57.6413 65.4836C57.2889 65.795 56.7802 65.756 56.467 65.4056C56.1539 65.0552 56.1931 64.5495 56.5455 64.2381L57.485 63.421L56.2329 63.343C55.7634 63.304 55.411 62.9152 55.4502 62.4868C55.4895 62.0201 55.8805 61.6697 56.3113 61.7087L57.6027 61.7867L56.7416 60.8526C56.4284 60.5022 56.4676 59.9574 56.82 59.6851C57.1724 59.3737 57.6811 59.4127 57.9943 59.763L58.8161 60.6972L58.8946 59.4133C58.9338 58.9855 59.3248 58.6351 59.7557 58.6741C60.2251 58.6741 60.5775 59.0635 60.5383 59.5302L60.4599 60.7752L61.438 59.958C61.7512 59.6466 62.2991 59.6856 62.5731 60.036C62.8863 60.3474 62.847 60.8921 62.4946 61.1645L61.5551 62.0207L62.8464 62.0986C63.2767 62.1376 63.6291 62.5264 63.5899 62.9548H63.5905Z" fill="black"/>
<path d="M52.0094 62.9548C52.0094 63.4215 51.6178 63.7719 51.1483 63.7329L49.8962 63.6549L50.7181 64.589C51.0312 64.9394 50.992 65.4452 50.6396 65.7566C50.3265 66.0679 49.7785 66.0289 49.5046 65.6786L48.6435 64.7444L48.5651 65.9894C48.5651 66.4561 48.1734 66.8065 47.704 66.7675C47.2345 66.7675 46.8821 66.3781 46.9213 65.9114L46.9998 64.6665L46.0602 65.4836C45.7079 65.795 45.1992 65.756 44.886 65.4056C44.5728 65.0552 44.612 64.5495 44.9644 64.2381L45.904 63.421L44.6518 63.343C44.1824 63.304 43.83 62.9152 43.8692 62.4868C43.9084 62.0201 44.2994 61.6697 44.7303 61.7087L46.0216 61.7867L45.1605 60.8526C44.8474 60.5022 44.8866 59.9574 45.239 59.6851C45.5914 59.3737 46.1001 59.4127 46.4132 59.763L47.2351 60.6972L47.3135 59.4133C47.3528 58.9855 47.7438 58.6351 48.1746 58.6741C48.6441 58.6741 48.9965 59.0635 48.9573 59.5302L48.8788 60.7752L49.857 59.958C50.1702 59.6466 50.7181 59.6856 50.992 60.036C51.3052 60.3474 51.266 60.8921 50.9136 61.1645L49.9741 62.0207L51.2654 62.0986C51.6956 62.1376 52.048 62.5264 52.0088 62.9548H52.0094Z" fill="black"/>
<g style="mix-blend-mode:multiply">
<path d="M88.209 67.1924H86.92C86.92 67.1924 86.9206 67.1924 86.9212 67.1924H79.7627V63.4007C79.7627 61.6628 81.1851 60.2485 82.933 60.2485C84.681 60.2485 86.1034 61.6628 86.1034 63.4007V65.9202H86.3118V66.2921H86.1034V66.9253H88.3952V66.2921H88.1868V65.9202H88.3952V63.4007C88.3952 60.4016 85.9495 57.97 82.933 57.97C82.8329 57.97 82.7334 57.9729 82.6351 57.9781C82.6234 57.9775 82.6117 57.9764 82.5994 57.9758C81.2243 58.0573 79.9863 58.6451 79.0708 59.5559C78.0821 60.5378 77.4709 61.8956 77.4709 63.3954V67.2006C76.2381 67.2949 75.2676 68.3186 75.2676 69.5688V74.1148C75.2676 77.3438 77.9 79.9611 81.1477 79.9611H83.4347C83.4347 79.9611 83.4312 79.9611 83.4294 79.9611H84.7184C87.9661 79.9611 90.5985 77.3438 90.5985 74.1148V69.5682C90.5985 68.2558 89.5285 67.1924 88.209 67.1924Z" fill="#E6E6E6"/>
</g>
<path d="M67.7743 62.0986L69.0657 62.0207L68.1261 61.1645C67.7738 60.8921 67.7345 60.3474 68.0477 60.036C68.3217 59.6856 68.8696 59.6466 69.1828 59.958L70.1609 60.7752L70.0825 59.5302C70.0433 59.0635 70.3956 58.6741 70.8651 58.6741C71.2954 58.6351 71.687 58.9855 71.7262 59.4133L71.8046 60.6972L72.6265 59.763C72.9397 59.4127 73.4484 59.3737 73.8008 59.6851C74.1532 59.9574 74.1924 60.5022 73.8792 60.8526L73.0181 61.7867L74.3095 61.7087C74.7397 61.6697 75.1313 62.0201 75.1705 62.4868C75.2098 62.9146 74.8574 63.304 74.3879 63.343L73.1358 63.421L74.0753 64.2381C74.4277 64.5495 74.4669 65.0552 74.1537 65.4056C73.8406 65.756 73.3319 65.795 72.9795 65.4836L72.04 64.6665L72.1184 65.9114C72.1576 66.3781 71.8052 66.7675 71.3358 66.7675C70.8663 66.8065 70.4747 66.4561 70.4747 65.9894L70.3962 64.7444L69.5351 65.6786C69.2612 66.0289 68.7133 66.0679 68.4001 65.7566C68.0477 65.4452 68.0085 64.9394 68.3217 64.589L69.1435 63.6549L67.8914 63.7329C67.4219 63.7719 67.0303 63.4215 67.0303 62.9548C66.9911 62.527 67.3435 62.1376 67.7738 62.0986H67.7743Z" fill="black"/>
<path d="M92.8985 64.7771H90.584V65.5593H92.8985V64.7771Z" fill="#232323"/>
<path d="M90.3263 61.8717V64.982H93.156V61.8717C93.156 58.169 90.1366 55.167 86.4125 55.167C82.6883 55.167 79.6689 58.169 79.6689 61.8717V66.6017H82.4986V61.8717C82.4986 59.7259 84.2542 57.9804 86.4125 57.9804C88.5707 57.9804 90.3263 59.7259 90.3263 61.8717Z" fill="#2D2D2B"/>
<path d="M90.3274 61.8641V63.1398H91.048C91.7563 63.1398 92.3312 62.5689 92.3312 61.8641C92.3312 58.2993 89.5325 55.384 86.0009 55.1733C84.3034 55.274 82.7749 55.9998 81.6446 57.1242C80.4241 58.3365 79.6689 60.0127 79.6689 61.8641V65.224H82.4986V61.8641C82.4986 59.8573 84.0347 58.1998 86.0009 57.9949C86.1367 57.9804 86.2743 57.9734 86.413 57.9734C88.5719 57.9734 90.3274 59.7188 90.3274 61.8641Z" fill="#232323"/>
<path opacity="0.25" d="M84.951 56.342C84.7654 56.3828 84.581 56.4305 84.4001 56.4916C83.7468 56.7128 83.1304 57.0666 82.5989 57.5311C82.0686 57.9961 81.6237 58.5711 81.3047 59.2189C81.074 59.6851 80.9107 60.1897 80.8194 60.7106C80.7696 60.9969 80.961 61.2856 81.252 61.3194C81.5499 61.3543 81.8063 61.1296 81.8157 60.8398C81.8297 60.3986 81.9076 59.9551 82.051 59.5274C82.2459 58.943 82.562 58.389 82.98 57.91C83.398 57.4316 83.9172 57.0288 84.5037 56.739C84.5892 56.6965 84.677 56.6575 84.7654 56.6208C84.8784 56.5743 84.951 56.4637 84.951 56.342Z" fill="white"/>
<path d="M79.8985 66.5522H92.926C94.5545 66.5522 95.8763 67.8664 95.8763 69.4856V75.0984C95.8763 79.0823 92.6234 82.3165 88.6165 82.3165H84.2081C80.2012 82.3165 76.9482 79.0823 76.9482 75.0984V69.4856C76.9482 67.8664 78.27 66.5522 79.8985 66.5522Z" fill="#FFD404"/>
<g style="mix-blend-mode:multiply">
<path d="M95.8762 69.4856V75.0984C95.8762 79.0846 92.6262 82.3165 88.6164 82.3165H87.0254C91.0346 82.3165 94.2852 79.0852 94.2852 75.0984V69.4856C94.2852 67.8658 92.9646 66.5522 91.3349 66.5522H92.926C94.5551 66.5522 95.8762 67.8658 95.8762 69.4856Z" fill="#E6E6E6"/>
</g>
<g style="mix-blend-mode:multiply">
<path d="M78.3267 76.7636C78.6556 76.7636 78.9074 76.479 78.8734 76.1536C78.8488 75.9191 78.8359 75.6805 78.8359 75.4395V69.453C78.8359 68.4199 79.5033 67.5446 80.4311 67.2222H80.0014C78.6878 67.2222 77.623 68.2808 77.623 69.5869V74.8482C77.623 75.3615 77.681 75.8621 77.7905 76.3428C77.8467 76.5901 78.0714 76.7636 78.3267 76.7636Z" fill="#F2F2F2"/>
</g>
<path d="M88.5325 73.0088C88.7224 71.8457 87.928 70.7497 86.7581 70.5609C85.5882 70.3721 84.4859 71.1619 84.296 72.3251C84.1061 73.4882 84.9005 74.5842 86.0704 74.773C87.2403 74.9618 88.3426 74.172 88.5325 73.0088Z" fill="#1A1A1A"/>
<path d="M88.0028 78.2593L87.5614 73.8733H85.2627L84.8213 78.2593H88.0028Z" fill="#1A1A1A"/>
<path d="M93.1559 65.4407H90.3262V66.2229H93.1559V65.4407Z" fill="#2D2D2B"/>
</g>
</g>
<defs>
<linearGradient id="paint0_linear_2756_2750" x1="66.8764" y1="43.1237" x2="66.8775" y2="94.2076" gradientUnits="userSpaceOnUse">
<stop stop-color="#EB00D4"/>
<stop offset="1" stop-color="#8A027D"/>
</linearGradient>
<clipPath id="clip0_2756_2750">
<rect width="138" height="138" fill="white" transform="matrix(1 0 0 -1 0 138)"/>
</clipPath>
<clipPath id="clip1_2756_2750">
<rect width="84" height="62" fill="white" transform="translate(29 34)"/>
</clipPath>
</defs>
</svg>
