<svg width="8" height="15" viewBox="0 0 8 15" fill="none" xmlns="http://www.w3.org/2000/svg">
<path d="M6.40005 5.38006L1.81005 0.79006C1.62268 0.603809 1.36923 0.499268 1.10505 0.499268C0.840861 0.499268 0.587409 0.603809 0.400046 0.79006C0.306318 0.883023 0.231924 0.993624 0.181155 1.11548C0.130387 1.23734 0.104248 1.36805 0.104248 1.50006C0.104248 1.63207 0.130387 1.76278 0.181155 1.88464C0.231924 2.0065 0.306318 2.1171 0.400046 2.21006L5.00005 6.79006C5.09378 6.88302 5.16817 6.99362 5.21894 7.11548C5.26971 7.23734 5.29585 7.36805 5.29585 7.50006C5.29585 7.63207 5.26971 7.76278 5.21894 7.88464C5.16817 8.0065 5.09378 8.1171 5.00005 8.21006L0.400046 12.7901C0.211743 12.977 0.105428 13.2312 0.10449 13.4965C0.103553 13.7619 0.20807 14.0168 0.395047 14.2051C0.582025 14.3934 0.836147 14.4997 1.10151 14.5006C1.36687 14.5016 1.62174 14.397 1.81005 14.2101L6.40005 9.62006C6.96185 9.05756 7.27741 8.29506 7.27741 7.50006C7.27741 6.70506 6.96185 5.94256 6.40005 5.38006Z" fill="#5E5E5E"/>
</svg>
