<svg width="16" height="16" viewBox="0 0 16 16" fill="none" xmlns="http://www.w3.org/2000/svg">
<g clip-path="url(#clip0_2756_3832)">
<path fill-rule="evenodd" clip-rule="evenodd" d="M0.404925 5.88922H0.406081L5.92043 5.89934L7.61468 0.653845C7.64027 0.571667 7.69146 0.499823 7.76078 0.448805C7.8301 0.397788 7.91392 0.37027 7.99999 0.37027C8.08606 0.37027 8.16987 0.397788 8.23919 0.448805C8.30852 0.499823 8.35971 0.571667 8.3853 0.653845L10.0793 5.89938L15.5937 5.88922H15.5948C15.6802 5.88886 15.7636 5.91563 15.8328 5.96567C15.902 6.01572 15.9536 6.08645 15.9801 6.16769C16.0066 6.24953 16.0066 6.33766 15.9801 6.4195C15.9536 6.50135 15.9019 6.57272 15.8324 6.62344L11.3644 9.85378L13.0789 15.0994C13.1058 15.1804 13.106 15.2678 13.0796 15.3489C13.0531 15.4299 13.0014 15.5004 12.932 15.55C12.8623 15.5994 12.779 15.6259 12.6936 15.6259C12.6082 15.6259 12.5249 15.5994 12.4551 15.55L7.99999 12.2994L3.54467 15.55C3.47569 15.6003 3.39255 15.6275 3.30716 15.6277C3.22176 15.6279 3.1385 15.6011 3.06928 15.5511C3.00007 15.5011 2.94845 15.4305 2.92181 15.3493C2.89518 15.2682 2.8949 15.1807 2.92102 15.0994L4.63536 9.85378L0.167487 6.62334C0.0979881 6.57266 0.0462828 6.50131 0.0197544 6.41948C-0.0067749 6.33766 -0.00676918 6.24954 0.0197687 6.16772C0.0462704 6.08653 0.0978279 6.01584 0.167032 5.9658C0.236237 5.91576 0.319525 5.88895 0.404925 5.88922Z" fill="#FF9900"/>
</g>
<defs>
<clipPath id="clip0_2756_3832">
<rect width="16" height="16" fill="white" transform="matrix(-1 0 0 1 16 0)"/>
</clipPath>
</defs>
</svg>
