<svg width="16" height="16" viewBox="0 0 16 16" fill="none" xmlns="http://www.w3.org/2000/svg">
<g clip-path="url(#clip0_2756_8801)">
<path d="M12.6667 0H3.33333C1.49533 0 0 1.49533 0 3.33333V12.6667C0 14.5047 1.49533 16 3.33333 16H11.0973C11.9553 16 12.762 15.666 13.3687 15.0593L15.0593 13.3687C15.6573 12.7713 16 11.9427 16 11.0973V3.33333C16 1.49533 14.5047 0 12.6667 0ZM1.33333 12.6667V3.33333C1.33333 2.23067 2.23067 1.33333 3.33333 1.33333H12.6667C13.7693 1.33333 14.6667 2.23067 14.6667 3.33333V10H12C10.8973 10 10 10.8973 10 12V14.6667H3.33333C2.23067 14.6667 1.33333 13.7693 1.33333 12.6667ZM12.426 14.1167C12.1273 14.4153 11.746 14.6 11.3333 14.6513V12C11.3333 11.632 11.6327 11.3333 12 11.3333H14.6507C14.598 11.7433 14.41 12.132 14.116 12.426L12.426 14.1167ZM3.33333 4.33333C3.33333 3.78133 3.78133 3.33333 4.33333 3.33333C4.88533 3.33333 5.33333 3.78133 5.33333 4.33333C5.33333 4.88533 4.88533 5.33333 4.33333 5.33333C3.78133 5.33333 3.33333 4.88533 3.33333 4.33333ZM5.33333 8C5.33333 8.552 4.88533 9 4.33333 9C3.78133 9 3.33333 8.552 3.33333 8C3.33333 7.448 3.78133 7 4.33333 7C4.88533 7 5.33333 7.448 5.33333 8ZM5.33333 11.6667C5.33333 12.2187 4.88533 12.6667 4.33333 12.6667C3.78133 12.6667 3.33333 12.2187 3.33333 11.6667C3.33333 11.1147 3.78133 10.6667 4.33333 10.6667C4.88533 10.6667 5.33333 11.1147 5.33333 11.6667Z" fill="#5E5E5E"/>
</g>
<defs>
<clipPath id="clip0_2756_8801">
<rect width="16" height="16" fill="white"/>
</clipPath>
</defs>
</svg>
