<svg width="39" height="39" viewBox="0 0 39 39" fill="none" xmlns="http://www.w3.org/2000/svg">
<g clip-path="url(#clip0_2097_1979)">
<path d="M16.0347 0.0582085H18.3547V1.86269C18.3547 2.12463 18.1198 2.35746 17.8555 2.35746H16.5339C16.2696 2.35746 16.0347 2.12463 16.0347 1.86269V0.0582085Z" stroke="black" stroke-width="0.5" stroke-linecap="round" stroke-linejoin="round"/>
<path d="M18.3547 0.0582085H16.0347V0.52388H18.3547V0.0582085Z" stroke="black" stroke-width="0.5" stroke-linecap="round" stroke-linejoin="round"/>
<path d="M24.1399 2.82314H14.8892V7.42164H24.1399V2.82314Z" stroke="black" stroke-width="0.5" stroke-linecap="round" stroke-linejoin="round"/>
<path d="M20.6744 0.0582085H22.9944V1.86269C22.9944 2.12463 22.7595 2.35746 22.4952 2.35746H21.1443C20.88 2.35746 20.645 2.12463 20.645 1.86269L20.6744 0.0582085Z" stroke="black" stroke-width="0.5" stroke-linecap="round" stroke-linejoin="round"/>
<path d="M22.9943 0.0582085H20.6743V0.52388H22.9943V0.0582085Z" stroke="black" stroke-width="0.5" stroke-linecap="round" stroke-linejoin="round"/>
<path d="M4.9043 10.2739H7.22433V12.0784C7.22433 12.3403 6.98939 12.5731 6.72508 12.5731H5.40354C5.13924 12.5731 4.9043 12.3403 4.9043 12.0784V10.2739Z" stroke="black" stroke-width="0.5" stroke-linecap="round" stroke-linejoin="round"/>
<path d="M7.22433 10.2448H4.9043V10.7104H7.22433V10.2448Z" stroke="black" stroke-width="0.5" stroke-linecap="round" stroke-linejoin="round"/>
<path d="M17.6207 13.0097H3.75928V17.6082H17.6207V13.0097Z" stroke="black" stroke-width="0.5" stroke-linecap="round" stroke-linejoin="round"/>
<path d="M7.22433 20.344H4.9043V18.5396C4.9043 18.2776 5.13924 18.0448 5.40354 18.0448H6.72508C6.98939 18.0448 7.22433 18.2776 7.22433 18.5396V20.344Z" stroke="black" stroke-width="0.5" stroke-linecap="round" stroke-linejoin="round"/>
<path d="M7.22433 19.8784H4.9043V20.344H7.22433V19.8784Z" stroke="black" stroke-width="0.5" stroke-linecap="round" stroke-linejoin="round"/>
<path d="M16.4753 20.344H14.1553V18.5396C14.1553 18.2776 14.3902 18.0448 14.6545 18.0448H15.9761C16.2404 18.0448 16.4753 18.2776 16.4753 18.5396V20.344Z" stroke="black" stroke-width="0.5" stroke-linecap="round" stroke-linejoin="round"/>
<path d="M16.4753 19.8784H14.1553V20.344H16.4753V19.8784Z" stroke="black" stroke-width="0.5" stroke-linecap="round" stroke-linejoin="round"/>
<path d="M14.1553 10.2448H16.4753V12.0493C16.4753 12.3112 16.2404 12.544 15.9761 12.544H14.6545C14.3902 12.544 14.1553 12.3112 14.1553 12.0493V10.2448Z" stroke="black" stroke-width="0.5" stroke-linecap="round" stroke-linejoin="round"/>
<path d="M16.4753 10.2448H14.1553V10.7104H16.4753V10.2448Z" stroke="black" stroke-width="0.5" stroke-linecap="round" stroke-linejoin="round"/>
<path d="M11.8645 20.344H9.54443V18.5396C9.54443 18.2776 9.77937 18.0448 10.0437 18.0448H11.3652C11.6295 18.0448 11.8645 18.2776 11.8645 18.5396V20.344Z" stroke="black" stroke-width="0.5" stroke-linecap="round" stroke-linejoin="round"/>
<path d="M11.8645 19.8784H9.54443V20.344H11.8645V19.8784Z" stroke="black" stroke-width="0.5" stroke-linecap="round" stroke-linejoin="round"/>
<path d="M9.54443 10.2448H11.8645V12.0493C11.8645 12.3112 11.6295 12.544 11.3652 12.544H10.0437C9.77937 12.544 9.54443 12.3112 9.54443 12.0493V10.2448Z" stroke="black" stroke-width="0.5" stroke-linecap="round" stroke-linejoin="round"/>
<path d="M11.8645 10.2448H9.54443V10.7104H11.8645V10.2448Z" stroke="black" stroke-width="0.5" stroke-linecap="round" stroke-linejoin="round"/>
<path d="M0.998535 16.444V14.1448H2.81932C3.08363 14.1448 3.31857 14.3776 3.31857 14.6396V15.9493C3.31857 16.2112 3.08363 16.444 2.81932 16.444H0.998535Z" stroke="black" stroke-width="0.5" stroke-linecap="round" stroke-linejoin="round"/>
<path d="M1.46841 14.1448H0.998535V16.444H1.46841V14.1448Z" stroke="black" stroke-width="0.5" stroke-linecap="round" stroke-linejoin="round"/>
<path d="M22.5249 10.2739H24.8449V12.0784C24.8449 12.3403 24.61 12.5731 24.3457 12.5731H23.0242C22.7598 12.5731 22.5249 12.3403 22.5249 12.0784V10.2739Z" stroke="black" stroke-width="0.5" stroke-linecap="round" stroke-linejoin="round"/>
<path d="M24.8449 10.2739H22.5249V10.7396H24.8449V10.2739Z" stroke="black" stroke-width="0.5" stroke-linecap="round" stroke-linejoin="round"/>
<path d="M35.2408 13.0097H21.3794V17.6082H35.2408V13.0097Z" stroke="black" stroke-width="0.5" stroke-linecap="round" stroke-linejoin="round"/>
<path d="M24.8449 20.344H22.5249V18.5396C22.5249 18.2776 22.7598 18.0448 23.0242 18.0448H24.3457C24.61 18.0448 24.8449 18.2776 24.8449 18.5396V20.344Z" stroke="black" stroke-width="0.5" stroke-linecap="round" stroke-linejoin="round"/>
<path d="M24.8449 19.8784H22.5249V20.344H24.8449V19.8784Z" stroke="black" stroke-width="0.5" stroke-linecap="round" stroke-linejoin="round"/>
<path d="M34.0954 20.344H31.7754V18.5396C31.7754 18.2776 32.0103 18.0448 32.2746 18.0448H33.5962C33.8605 18.0448 34.0954 18.2776 34.0954 18.5396V20.344Z" stroke="black" stroke-width="0.5" stroke-linecap="round" stroke-linejoin="round"/>
<path d="M34.0954 19.8784H31.7754V20.344H34.0954V19.8784Z" stroke="black" stroke-width="0.5" stroke-linecap="round" stroke-linejoin="round"/>
<path d="M31.7754 10.2739H34.0954V12.0784C34.0954 12.3403 33.8605 12.5731 33.5962 12.5731H32.2746C32.0103 12.5731 31.7754 12.3403 31.7754 12.0784V10.2739Z" stroke="black" stroke-width="0.5" stroke-linecap="round" stroke-linejoin="round"/>
<path d="M34.0954 10.2739H31.7754V10.7396H34.0954V10.2739Z" stroke="black" stroke-width="0.5" stroke-linecap="round" stroke-linejoin="round"/>
<path d="M29.4846 20.344H27.1646V18.5396C27.1646 18.2776 27.3995 18.0448 27.6638 18.0448H28.9853C29.2496 18.0448 29.4846 18.2776 29.4846 18.5396V20.344Z" stroke="black" stroke-width="0.5" stroke-linecap="round" stroke-linejoin="round"/>
<path d="M29.4846 19.8784H27.1646V20.344H29.4846V19.8784Z" stroke="black" stroke-width="0.5" stroke-linecap="round" stroke-linejoin="round"/>
<path d="M27.1646 10.2739H29.4846V12.0784C29.4846 12.3403 29.2496 12.5731 28.9853 12.5731H27.6638C27.3995 12.5731 27.1646 12.3403 27.1646 12.0784V10.2739Z" stroke="black" stroke-width="0.5" stroke-linecap="round" stroke-linejoin="round"/>
<path d="M29.4846 10.2739H27.1646V10.7396H29.4846V10.2739Z" stroke="black" stroke-width="0.5" stroke-linecap="round" stroke-linejoin="round"/>
<path d="M38.031 14.1448V16.444H36.2102C35.9459 16.444 35.7109 16.2112 35.7109 15.9493V14.6396C35.7109 14.3776 35.9459 14.1448 36.2102 14.1448H38.031Z" stroke="black" stroke-width="0.5" stroke-linecap="round" stroke-linejoin="round"/>
<path d="M38.0309 14.1448H37.561V16.444H38.0309V14.1448Z" stroke="black" stroke-width="0.5" stroke-linecap="round" stroke-linejoin="round"/>
<path d="M4.9043 26.2813H7.22433V28.0858C7.22433 28.3478 6.98939 28.5806 6.72508 28.5806H5.40354C5.13924 28.5806 4.9043 28.3478 4.9043 28.0858V26.2813Z" stroke="black" stroke-width="0.5" stroke-linecap="round" stroke-linejoin="round"/>
<path d="M7.22433 26.2522H4.9043V26.7179H7.22433V26.2522Z" stroke="black" stroke-width="0.5" stroke-linecap="round" stroke-linejoin="round"/>
<path d="M17.6207 29.0172H3.75928V33.6157H17.6207V29.0172Z" stroke="black" stroke-width="0.5" stroke-linecap="round" stroke-linejoin="round"/>
<path d="M7.22433 36.3515H4.9043V34.547C4.9043 34.2851 5.13924 34.0522 5.40354 34.0522H6.72508C6.98939 34.0522 7.22433 34.2851 7.22433 34.547V36.3515Z" stroke="black" stroke-width="0.5" stroke-linecap="round" stroke-linejoin="round"/>
<path d="M7.22433 35.8858H4.9043V36.3515H7.22433V35.8858Z" stroke="black" stroke-width="0.5" stroke-linecap="round" stroke-linejoin="round"/>
<path d="M16.4753 36.3515H14.1553V34.547C14.1553 34.2851 14.3902 34.0522 14.6545 34.0522H15.9761C16.2404 34.0522 16.4753 34.2851 16.4753 34.547V36.3515Z" stroke="black" stroke-width="0.5" stroke-linecap="round" stroke-linejoin="round"/>
<path d="M16.4753 35.8858H14.1553V36.3515H16.4753V35.8858Z" stroke="black" stroke-width="0.5" stroke-linecap="round" stroke-linejoin="round"/>
<path d="M14.1553 26.2522H16.4753V28.0567C16.4753 28.3187 16.2404 28.5515 15.9761 28.5515H14.6545C14.3902 28.5515 14.1553 28.3187 14.1553 28.0567V26.2522Z" stroke="black" stroke-width="0.5" stroke-linecap="round" stroke-linejoin="round"/>
<path d="M16.4753 26.2522H14.1553V26.7179H16.4753V26.2522Z" stroke="black" stroke-width="0.5" stroke-linecap="round" stroke-linejoin="round"/>
<path d="M11.8645 36.3515H9.54443V34.547C9.54443 34.2851 9.77937 34.0522 10.0437 34.0522H11.3652C11.6295 34.0522 11.8645 34.2851 11.8645 34.547V36.3515Z" stroke="black" stroke-width="0.5" stroke-linecap="round" stroke-linejoin="round"/>
<path d="M11.8645 35.8858H9.54443V36.3515H11.8645V35.8858Z" stroke="black" stroke-width="0.5" stroke-linecap="round" stroke-linejoin="round"/>
<path d="M9.54443 26.2522H11.8645V28.0567C11.8645 28.3187 11.6295 28.5515 11.3652 28.5515H10.0437C9.77937 28.5515 9.54443 28.3187 9.54443 28.0567V26.2522Z" stroke="black" stroke-width="0.5" stroke-linecap="round" stroke-linejoin="round"/>
<path d="M11.8645 26.2522H9.54443V26.7179H11.8645V26.2522Z" stroke="black" stroke-width="0.5" stroke-linecap="round" stroke-linejoin="round"/>
<path d="M0.998535 32.4515V30.1522H2.81932C3.08363 30.1522 3.31857 30.3851 3.31857 30.647V31.9567C3.31857 32.2187 3.08363 32.4515 2.81932 32.4515H0.998535Z" stroke="black" stroke-width="0.5" stroke-linecap="round" stroke-linejoin="round"/>
<path d="M1.46841 30.1522H0.998535V32.4515H1.46841V30.1522Z" stroke="black" stroke-width="0.5" stroke-linecap="round" stroke-linejoin="round"/>
<path d="M22.5249 26.2522H24.8449V28.0567C24.8449 28.3187 24.61 28.5515 24.3457 28.5515H23.0242C22.7598 28.5515 22.5249 28.3187 22.5249 28.0567V26.2522Z" stroke="black" stroke-width="0.5" stroke-linecap="round" stroke-linejoin="round"/>
<path d="M24.8449 26.2813H22.5249V26.747H24.8449V26.2813Z" stroke="black" stroke-width="0.5" stroke-linecap="round" stroke-linejoin="round"/>
<path d="M35.2408 29.0172H21.3794V33.6157H35.2408V29.0172Z" stroke="black" stroke-width="0.5" stroke-linecap="round" stroke-linejoin="round"/>
<path d="M24.8449 36.3515H22.5249V34.547C22.5249 34.2851 22.7598 34.0522 23.0242 34.0522H24.3457C24.61 34.0522 24.8449 34.2851 24.8449 34.547V36.3515Z" stroke="black" stroke-width="0.5" stroke-linecap="round" stroke-linejoin="round"/>
<path d="M24.8449 35.8858H22.5249V36.3515H24.8449V35.8858Z" stroke="black" stroke-width="0.5" stroke-linecap="round" stroke-linejoin="round"/>
<path d="M34.0954 36.3515H31.7754V34.547C31.7754 34.2851 32.0103 34.0522 32.2746 34.0522H33.5962C33.8605 34.0522 34.0954 34.2851 34.0954 34.547V36.3515Z" stroke="black" stroke-width="0.5" stroke-linecap="round" stroke-linejoin="round"/>
<path d="M34.0954 35.8858H31.7754V36.3515H34.0954V35.8858Z" stroke="black" stroke-width="0.5" stroke-linecap="round" stroke-linejoin="round"/>
<path d="M31.7754 26.2813H34.0954V28.0858C34.0954 28.3478 33.8605 28.5806 33.5962 28.5806H32.2746C32.0103 28.5806 31.7754 28.3478 31.7754 28.0858V26.2813Z" stroke="black" stroke-width="0.5" stroke-linecap="round" stroke-linejoin="round"/>
<path d="M34.0954 26.2813H31.7754V26.747H34.0954V26.2813Z" stroke="black" stroke-width="0.5" stroke-linecap="round" stroke-linejoin="round"/>
<path d="M29.4846 36.3515H27.1646V34.547C27.1646 34.2851 27.3995 34.0522 27.6638 34.0522H28.9853C29.2496 34.0522 29.4846 34.2851 29.4846 34.547V36.3515Z" stroke="black" stroke-width="0.5" stroke-linecap="round" stroke-linejoin="round"/>
<path d="M29.4846 35.8858H27.1646V36.3515H29.4846V35.8858Z" stroke="black" stroke-width="0.5" stroke-linecap="round" stroke-linejoin="round"/>
<path d="M27.1646 26.2522H29.4846V28.0567C29.4846 28.3187 29.2496 28.5515 28.9853 28.5515H27.6638C27.3995 28.5515 27.1646 28.3187 27.1646 28.0567V26.2522Z" stroke="black" stroke-width="0.5" stroke-linecap="round" stroke-linejoin="round"/>
<path d="M29.4846 26.2522H27.1646V26.7179H29.4846V26.2522Z" stroke="black" stroke-width="0.5" stroke-linecap="round" stroke-linejoin="round"/>
<path d="M38.031 30.1522V32.4515H36.2102C35.9459 32.4515 35.7109 32.2187 35.7109 31.9567V30.647C35.7109 30.3851 35.9459 30.1522 36.2102 30.1522H38.031Z" stroke="black" stroke-width="0.5" stroke-linecap="round" stroke-linejoin="round"/>
<path d="M38.0309 30.1522H37.561V32.4515H38.0309V30.1522Z" stroke="black" stroke-width="0.5" stroke-linecap="round" stroke-linejoin="round"/>
</g>
<defs>
<clipPath id="clip0_2097_1979">
<rect width="39" height="39" fill="white"/>
</clipPath>
</defs>
</svg>
