<svg width="75" height="71" viewBox="0 0 75 71" fill="none" xmlns="http://www.w3.org/2000/svg">
<path d="M7.56583 40.0142C7.19302 39.4642 7.33649 38.7162 7.88632 38.3432L59.5467 3.30883L58.1404 2.87736C57.5051 2.68246 57.1481 2.00946 57.343 1.37421C57.5382 0.738958 58.2109 0.38193 58.8462 0.576987L62.6529 1.74507C63.2567 1.93035 63.6145 2.55071 63.4722 3.16611L62.5769 7.04108C62.4485 7.59737 61.9532 7.97365 61.4057 7.97365C61.316 7.97365 61.2249 7.96357 61.1338 7.94237C60.4863 7.79273 60.0828 7.14665 60.2323 6.49937L60.4373 5.61207L9.23683 40.3347C9.03004 40.475 8.79498 40.5422 8.56262 40.5422C8.17717 40.5422 7.79849 40.3574 7.56583 40.0142ZM67.9313 55.7469C67.9313 60.4973 64.0665 64.3622 59.3161 64.3622C54.5658 64.3622 50.7052 60.4974 50.7052 55.7469C50.7052 50.9963 54.5682 47.136 59.3161 47.136C64.0641 47.136 67.9313 50.9989 67.9313 55.7469ZM63.0684 57.9976C63.0684 55.3082 60.8768 54.847 59.5672 54.5713C58.0327 54.2484 57.9742 54.0947 57.9742 53.496C57.9742 52.9281 58.5887 52.4482 59.3161 52.4482C59.8502 52.4482 60.3341 52.6986 60.5487 53.086C60.871 53.6673 61.6033 53.8769 62.1844 53.5551C62.7655 53.233 62.9755 52.5007 62.6533 51.9196C62.2005 51.1028 61.4303 50.5058 60.5193 50.2239V49.8641C60.5193 49.1996 59.9806 48.6609 59.3161 48.6609C58.6517 48.6609 58.113 49.1996 58.113 49.8641V50.2257C56.6348 50.6888 55.568 51.9795 55.568 53.4961C55.568 56.1887 57.7611 56.6503 59.0716 56.9261C60.6038 57.2485 60.6621 57.4016 60.6621 57.9976C60.6621 58.5655 60.0457 59.0454 59.3161 59.0454C58.7841 59.0454 58.2986 58.794 58.0795 58.4049C57.7536 57.8259 57.0201 57.6209 56.4408 57.947C55.8618 58.273 55.6568 59.0066 55.9829 59.5856C56.439 60.3958 57.2075 60.9885 58.113 61.2692V61.6339C58.113 62.2984 58.6517 62.8371 59.3161 62.8371C59.9806 62.8371 60.5193 62.2984 60.5193 61.6339V61.2685C61.9997 60.8057 63.0684 59.5149 63.0684 57.9976ZM74.0454 55.7469C74.0454 63.8687 67.4378 70.4763 59.3161 70.4763C55.2699 70.4763 51.5998 68.8351 48.9357 66.1835H2.15869C1.49427 66.1835 0.955566 65.6448 0.955566 64.9804C0.955566 64.316 1.49427 63.7773 2.15869 63.7773H5.30802V47.7881C5.30802 47.1236 5.84672 46.5849 6.51115 46.5849H16.5759C17.2403 46.5849 17.779 47.1236 17.779 47.7881V63.7773H21.2344V38.627C21.2344 37.9626 21.7731 37.4239 22.4375 37.4239H32.498C33.1625 37.4239 33.7012 37.9626 33.7012 38.627V63.7773H37.1608V27.6414C37.1608 26.977 37.6995 26.4383 38.3639 26.4383H48.4244C49.0888 26.4383 49.6275 26.977 49.6275 27.6414V44.6679C50.6621 43.7621 51.8241 42.9989 53.0829 42.4083V16.7497C53.0829 16.0853 53.6216 15.5466 54.286 15.5466H64.3508C65.0152 15.5466 65.5539 16.0853 65.5539 16.7497V42.4093C70.5661 44.7615 74.0457 49.8552 74.0457 55.7469H74.0454ZM70.3375 55.7469C70.3375 49.672 65.3933 44.7297 59.3161 44.7297C53.239 44.7297 48.299 49.672 48.299 55.7469C48.299 61.8218 53.2413 66.7684 59.3161 66.7684C65.391 66.7684 70.3375 61.8242 70.3375 55.7469Z" fill="url(#paint0_linear_2756_3626)" stroke="url(#paint1_linear_2756_3626)" stroke-miterlimit="10"/>
<defs>
<linearGradient id="paint0_linear_2756_3626" x1="13.259" y1="77.7823" x2="76.0739" y2="14.9673" gradientUnits="userSpaceOnUse">
<stop stop-color="#8A027D"/>
<stop offset="1" stop-color="#8E17FF"/>
</linearGradient>
<linearGradient id="paint1_linear_2756_3626" x1="0.880371" y1="35.4999" x2="74.1206" y2="35.4999" gradientUnits="userSpaceOnUse">
<stop stop-color="white"/>
<stop offset="1"/>
</linearGradient>
</defs>
</svg>
