<svg width="39" height="35" viewBox="0 0 39 35" fill="none" xmlns="http://www.w3.org/2000/svg">
<path d="M23.216 30.4229H15.7841H4.60547V22.9909V0.695101H10.518V24.5103H28.4821V0.695101H34.3946V22.9909V30.4229H23.216Z" stroke="black" stroke-width="0.5" stroke-linecap="round" stroke-linejoin="round"/>
<path d="M13.9251 34.882H17.6387V31.9564C17.6387 31.5176 17.2848 31.1637 16.846 31.1637H14.7132C14.2743 31.1637 13.9204 31.5176 13.9204 31.9564V34.882H13.9251Z" stroke="black" stroke-width="0.5" stroke-linecap="round" stroke-linejoin="round"/>
<path d="M17.6389 34.882H13.9253V34.1412H17.6389V34.882Z" stroke="black" stroke-width="0.5" stroke-linecap="round" stroke-linejoin="round"/>
<path d="M28.7889 34.882H32.5025V31.9564C32.5025 31.5176 32.1486 31.1637 31.7098 31.1637H29.5769C29.1381 31.1637 28.7842 31.5176 28.7842 31.9564V34.882H28.7889Z" stroke="black" stroke-width="0.5" stroke-linecap="round" stroke-linejoin="round"/>
<path d="M32.5027 34.882H28.7891V34.1412H32.5027V34.882Z" stroke="black" stroke-width="0.5" stroke-linecap="round" stroke-linejoin="round"/>
<path d="M21.3568 34.882H25.0704V31.9564C25.0704 31.5176 24.7165 31.1637 24.2776 31.1637H22.1448C21.706 31.1637 21.3521 31.5176 21.3521 31.9564V34.882H21.3568Z" stroke="black" stroke-width="0.5" stroke-linecap="round" stroke-linejoin="round"/>
<path d="M25.0705 34.882H21.3569V34.1412H25.0705V34.882Z" stroke="black" stroke-width="0.5" stroke-linecap="round" stroke-linejoin="round"/>
<path d="M6.493 34.882H10.2066V31.9564C10.2066 31.5176 9.85271 31.1637 9.41387 31.1637H7.28102C6.84218 31.1637 6.48828 31.5176 6.48828 31.9564V34.882H6.493Z" stroke="black" stroke-width="0.5" stroke-linecap="round" stroke-linejoin="round"/>
<path d="M10.2068 34.882H6.49316V34.1412H10.2068V34.882Z" stroke="black" stroke-width="0.5" stroke-linecap="round" stroke-linejoin="round"/>
<path d="M38.8818 21.1318V17.4181H35.9562C35.5174 17.4181 35.1635 17.772 35.1635 18.2109V20.3437C35.1635 20.7826 35.5174 21.1365 35.9562 21.1365H38.8818V21.1318Z" stroke="black" stroke-width="0.5" stroke-linecap="round" stroke-linejoin="round"/>
<path d="M38.877 17.4181V21.1318H38.1361V17.4181H38.877Z" stroke="black" stroke-width="0.5" stroke-linecap="round" stroke-linejoin="round"/>
<path d="M38.8818 6.26788V2.55427H35.9562C35.5174 2.55427 35.1635 2.90817 35.1635 3.34701V5.47986C35.1635 5.9187 35.5174 6.2726 35.9562 6.2726H38.8818V6.26788Z" stroke="black" stroke-width="0.5" stroke-linecap="round" stroke-linejoin="round"/>
<path d="M38.8818 2.55427V6.26788H38.141V2.55427H38.8818Z" stroke="black" stroke-width="0.5" stroke-linecap="round" stroke-linejoin="round"/>
<path d="M38.8818 13.6998V9.9862H35.9562C35.5174 9.9862 35.1635 10.3401 35.1635 10.7789V12.9118C35.1635 13.3506 35.5174 13.7045 35.9562 13.7045H38.8818V13.6998Z" stroke="black" stroke-width="0.5" stroke-linecap="round" stroke-linejoin="round"/>
<path d="M38.8818 9.9862V13.6998H38.141V9.9862H38.8818Z" stroke="black" stroke-width="0.5" stroke-linecap="round" stroke-linejoin="round"/>
<path d="M38.8818 28.5637V24.8501H35.9562C35.5174 24.8501 35.1635 25.204 35.1635 25.6428V27.7757C35.1635 28.2145 35.5174 28.5684 35.9562 28.5684H38.8818V28.5637Z" stroke="black" stroke-width="0.5" stroke-linecap="round" stroke-linejoin="round"/>
<path d="M38.8818 24.8501V28.5637H38.141V24.8501H38.8818Z" stroke="black" stroke-width="0.5" stroke-linecap="round" stroke-linejoin="round"/>
<path d="M27.6895 20.3437V18.2109C27.6895 17.7721 27.3356 17.4181 26.8967 17.4181H23.9711V21.1318H26.8967C27.3356 21.1318 27.6895 20.7779 27.6895 20.339V20.3437Z" stroke="black" stroke-width="0.5" stroke-linecap="round" stroke-linejoin="round"/>
<path d="M24.7168 17.4229V21.1365H23.976V17.4229H24.7168Z" stroke="black" stroke-width="0.5" stroke-linecap="round" stroke-linejoin="round"/>
<path d="M27.6943 5.47985V3.347C27.6943 2.90816 27.3404 2.55426 26.9016 2.55426L23.976 2.55426V6.26787H26.9016C27.3404 6.26787 27.6943 5.91397 27.6943 5.47513V5.47985Z" stroke="black" stroke-width="0.5" stroke-linecap="round" stroke-linejoin="round"/>
<path d="M24.7217 2.55897V6.27258H23.9808V2.55897H24.7217Z" stroke="black" stroke-width="0.5" stroke-linecap="round" stroke-linejoin="round"/>
<path d="M27.6943 12.9118V10.7789C27.6943 10.3401 27.3404 9.9862 26.9016 9.9862H23.976V13.6998H26.9016C27.3404 13.6998 27.6943 13.3459 27.6943 12.9071V12.9118Z" stroke="black" stroke-width="0.5" stroke-linecap="round" stroke-linejoin="round"/>
<path d="M24.7217 9.99092V13.7045H23.9808V9.99092H24.7217Z" stroke="black" stroke-width="0.5" stroke-linecap="round" stroke-linejoin="round"/>
<path d="M15.0195 21.1365V17.4229H12.0939C11.6551 17.4229 11.3012 17.7768 11.3012 18.2156V20.3485C11.3012 20.7873 11.6551 21.1412 12.0939 21.1412H15.0195V21.1365Z" stroke="black" stroke-width="0.5" stroke-linecap="round" stroke-linejoin="round"/>
<path d="M15.0195 17.4229V21.1365H14.2787V17.4229H15.0195Z" stroke="black" stroke-width="0.5" stroke-linecap="round" stroke-linejoin="round"/>
<path d="M15.0244 6.27261V2.559H12.0988C11.66 2.559 11.3061 2.9129 11.3061 3.35174V5.48459C11.3061 5.92343 11.66 6.27733 12.0988 6.27733H15.0244V6.27261Z" stroke="black" stroke-width="0.5" stroke-linecap="round" stroke-linejoin="round"/>
<path d="M15.0244 2.559V6.27261H14.2836V2.559H15.0244Z" stroke="black" stroke-width="0.5" stroke-linecap="round" stroke-linejoin="round"/>
<path d="M15.0244 13.7045V9.99093H12.0988C11.66 9.99093 11.3061 10.3448 11.3061 10.7837V12.9165C11.3061 13.3554 11.66 13.7093 12.0988 13.7093H15.0244V13.7045Z" stroke="black" stroke-width="0.5" stroke-linecap="round" stroke-linejoin="round"/>
<path d="M15.0244 9.99093V13.7045H14.2836V9.99093H15.0244Z" stroke="black" stroke-width="0.5" stroke-linecap="round" stroke-linejoin="round"/>
<path d="M3.83154 20.339V18.2062C3.83154 17.7673 3.47764 17.4134 3.0388 17.4134H0.113212L0.113212 21.1318H3.0388C3.47764 21.1318 3.83154 20.7779 3.83154 20.339Z" stroke="black" stroke-width="0.5" stroke-linecap="round" stroke-linejoin="round"/>
<path d="M0.858887 17.4181L0.858887 21.1318H0.118052L0.118052 17.4181H0.858887Z" stroke="black" stroke-width="0.5" stroke-linecap="round" stroke-linejoin="round"/>
<path d="M3.83643 5.47986V3.34701C3.83643 2.90817 3.48252 2.55427 3.04369 2.55427L0.118095 2.55427L0.118095 6.2726H3.04369C3.48252 6.2726 3.83643 5.9187 3.83643 5.47986Z" stroke="black" stroke-width="0.5" stroke-linecap="round" stroke-linejoin="round"/>
<path d="M0.86377 2.55899L0.86377 6.2726H0.122935L0.122935 2.55899H0.86377Z" stroke="black" stroke-width="0.5" stroke-linecap="round" stroke-linejoin="round"/>
<path d="M3.83643 12.9118V10.779C3.83643 10.3401 3.48252 9.98621 3.04369 9.98621H0.118097L0.118097 13.7045H3.04369C3.48252 13.7045 3.83643 13.3506 3.83643 12.9118Z" stroke="black" stroke-width="0.5" stroke-linecap="round" stroke-linejoin="round"/>
<path d="M0.86377 9.99093L0.86377 13.7045H0.122935L0.122935 9.99093H0.86377Z" stroke="black" stroke-width="0.5" stroke-linecap="round" stroke-linejoin="round"/>
<path d="M3.83154 27.771V25.6381C3.83154 25.1993 3.47764 24.8454 3.0388 24.8454H0.113213L0.113213 28.5637H3.0388C3.47764 28.5637 3.83154 28.2098 3.83154 27.771Z" stroke="black" stroke-width="0.5" stroke-linecap="round" stroke-linejoin="round"/>
<path d="M0.858887 24.8501L0.858887 28.5637H0.118052L0.118052 24.8501H0.858887Z" stroke="black" stroke-width="0.5" stroke-linecap="round" stroke-linejoin="round"/>
</svg>
